<svg width="250" height="203" viewBox="0 0 250 203" fill="none" xmlns="http://www.w3.org/2000/svg">
<g clip-path="url(#clip0_212_54863)">
<mask id="mask0_212_54863" style="mask-type:luminance" maskUnits="userSpaceOnUse" x="0" y="0" width="250" height="203">
<path d="M250 0H0V202.402H250V0Z" fill="white"/>
</mask>
<g mask="url(#mask0_212_54863)">
<path d="M88.1528 24.6271C88.1528 24.6271 88.3178 24.6271 88.3178 24.4688C88.3178 24.4688 88.3178 24.3105 88.1528 24.3105C88.1528 24.3105 87.9873 24.3105 87.9873 24.4688C87.9873 24.4688 87.9873 24.6271 88.1528 24.6271Z" fill="#212121"/>
<path d="M97.819 24.8645C97.819 24.8645 98.1494 24.7062 98.1494 24.548C98.1494 24.3897 97.984 24.2314 97.819 24.2314C97.6535 24.2314 97.4885 24.3897 97.4885 24.548C97.4885 24.7062 97.6535 24.8645 97.819 24.8645Z" fill="#212121"/>
<path d="M107.485 25.0239C107.485 25.0239 107.898 24.8654 107.898 24.6277C107.898 24.3899 107.733 24.2314 107.485 24.2314C107.237 24.2314 107.072 24.3899 107.072 24.6277C107.072 24.8654 107.237 25.0239 107.485 25.0239Z" fill="#212121"/>
<path d="M117.151 25.1821C117.151 25.1821 117.565 25.0236 117.565 24.7859C117.565 24.5482 117.399 24.3896 117.151 24.3896C116.904 24.3896 116.738 24.5482 116.738 24.7859C116.738 25.0236 116.904 25.1821 117.151 25.1821Z" fill="#212121"/>
<path d="M126.818 25.2612C126.818 25.2612 127.23 25.1027 127.23 24.865C127.23 24.6272 127.065 24.4688 126.818 24.4688C126.57 24.4688 126.405 24.6272 126.405 24.865C126.405 25.1027 126.57 25.2612 126.818 25.2612Z" fill="#212121"/>
<path d="M136.484 25.26C136.484 25.26 136.814 25.1017 136.814 24.9435C136.814 24.7852 136.649 24.627 136.484 24.627C136.319 24.627 136.153 24.7852 136.153 24.9435C136.153 25.1017 136.319 25.26 136.484 25.26Z" fill="#212121"/>
<path d="M146.067 25.1813C146.067 25.1813 146.232 25.1813 146.232 25.023C146.232 25.023 146.232 24.8647 146.067 24.8647C146.067 24.8647 145.902 24.8647 145.902 25.023C145.902 25.023 145.902 25.1813 146.067 25.1813Z" fill="#212121"/>
<path d="M155.734 25.1822H155.816L155.734 25.1025V25.1822Z" fill="#212121"/>
<path d="M59.0715 33.654C59.0715 33.654 59.3196 33.5749 59.3196 33.4166C59.3196 33.3375 59.2369 33.1792 59.0715 33.1792C58.9892 33.1792 58.8237 33.2583 58.8237 33.4166C58.8237 33.4957 58.9065 33.654 59.0715 33.654Z" fill="#212121"/>
<path d="M68.7378 34.2098C68.7378 34.2098 69.3987 33.8928 69.3987 33.5759C69.3987 33.2589 69.0683 32.9419 68.7378 32.9419C68.4074 32.9419 68.0769 33.2589 68.0769 33.5759C68.0769 33.8928 68.4074 34.2098 68.7378 34.2098Z" fill="#212121"/>
<path d="M78.4042 34.6839C78.9823 34.6839 79.4783 34.2087 79.4783 33.6544C79.4783 33.1001 78.9823 32.625 78.4042 32.625C77.826 32.625 77.3301 33.1001 77.3301 33.6544C77.3301 34.2087 77.826 34.6839 78.4042 34.6839Z" fill="#212121"/>
<path d="M88.0701 35.0009C88.8137 35.0009 89.4747 34.4465 89.4747 33.7338C89.4747 33.0212 88.896 32.3877 88.1528 32.3877C87.4092 32.3877 86.7483 32.942 86.7483 33.6547C86.7483 34.3673 87.3265 35.0009 88.0701 35.0009Z" fill="#212121"/>
<path d="M97.7363 35.2384C98.5622 35.2384 99.2231 34.6049 99.2231 33.813C99.2231 33.0212 98.5622 32.3877 97.7363 32.3877C96.9099 32.3877 96.249 33.0212 96.249 33.813C96.249 34.6049 96.9099 35.2384 97.7363 35.2384Z" fill="#212121"/>
<path d="M107.402 35.4759C108.311 35.4759 108.972 34.8424 108.972 33.9713C108.972 33.1003 108.311 32.4668 107.402 32.4668C106.494 32.4668 105.833 33.1003 105.833 33.9713C105.833 34.8424 106.494 35.4759 107.402 35.4759Z" fill="#212121"/>
<path d="M116.986 35.5551C117.895 35.5551 118.639 34.9216 118.639 34.0505C118.639 33.1795 117.895 32.4668 117.069 32.4668C116.16 32.4668 115.416 33.1003 115.416 33.9713C115.416 34.8424 116.16 35.5551 116.986 35.5551Z" fill="#212121"/>
<path d="M126.652 35.6341C127.561 35.6341 128.222 35.0006 128.222 34.1295C128.222 33.2585 127.561 32.625 126.652 32.625C125.744 32.625 125.083 33.2585 125.083 34.1295C125.083 35.0006 125.744 35.6341 126.652 35.6341Z" fill="#212121"/>
<path d="M136.319 35.6339C137.144 35.6339 137.805 35.0005 137.805 34.2086C137.805 33.4167 137.144 32.7832 136.319 32.7832C135.492 32.7832 134.831 33.4167 134.831 34.2086C134.831 35.0005 135.492 35.6339 136.319 35.6339Z" fill="#212121"/>
<path d="M145.985 35.6342C146.729 35.6342 147.389 35.0798 147.389 34.3671C147.389 33.6545 146.811 33.021 146.068 33.021C145.324 33.021 144.663 33.5753 144.663 34.288C144.663 35.0006 145.241 35.6342 145.985 35.6342Z" fill="#212121"/>
<path d="M155.651 35.4759C156.23 35.4759 156.725 35.0007 156.725 34.4464C156.725 33.8921 156.23 33.417 155.651 33.417C155.073 33.417 154.577 33.8921 154.577 34.4464C154.577 35.0007 155.073 35.4759 155.651 35.4759Z" fill="#212121"/>
<path d="M165.317 35.16C165.317 35.16 165.978 34.843 165.978 34.526C165.978 34.209 165.648 33.8921 165.317 33.8921C164.987 33.8921 164.656 34.209 164.656 34.526C164.656 34.843 164.987 35.16 165.317 35.16Z" fill="#212121"/>
<path d="M174.983 34.8419C174.983 34.8419 175.231 34.7628 175.231 34.6046C175.231 34.5254 175.149 34.3672 174.983 34.3672C174.9 34.3672 174.735 34.4463 174.735 34.6046C174.735 34.6837 174.818 34.8419 174.983 34.8419Z" fill="#212121"/>
<path d="M39.6564 42.6026C39.6564 42.6026 39.8217 42.6026 39.8217 42.4444C39.8217 42.4444 39.8217 42.2861 39.6564 42.2861C39.6564 42.2861 39.4912 42.2861 39.4912 42.4444C39.4912 42.4444 39.4912 42.6026 39.6564 42.6026Z" fill="#212121"/>
<path d="M49.3227 43.3155C49.7359 43.3155 50.0664 42.9987 50.0664 42.6028C50.0664 42.2069 49.7359 41.8901 49.3227 41.8901C48.9096 41.8901 48.5791 42.2069 48.5791 42.6028C48.5791 42.9987 48.9096 43.3155 49.3227 43.3155Z" fill="#212121"/>
<path d="M58.9886 43.9486C59.7322 43.9486 60.3104 43.3942 60.3104 42.6815C60.3104 41.9689 59.7322 41.4146 58.9886 41.4146C58.2449 41.4146 57.6667 41.9689 57.6667 42.6815C57.6667 43.3942 58.2449 43.9486 58.9886 43.9486Z" fill="#212121"/>
<path d="M68.655 44.3445C69.564 44.3445 70.3077 43.6322 70.3077 42.761C70.3077 41.8899 69.564 41.1772 68.655 41.1772C67.7463 41.1772 67.0027 41.8899 67.0027 42.761C67.0027 43.6322 67.7463 44.3445 68.655 44.3445Z" fill="#212121"/>
<path d="M78.3209 44.7406C79.395 44.7406 80.2213 43.949 80.2213 42.9195C80.2213 41.89 79.395 41.0981 78.3209 41.0981C77.2473 41.0981 76.4209 41.89 76.4209 42.9195C76.4209 43.949 77.2473 44.7406 78.3209 44.7406Z" fill="#212121"/>
<path d="M87.9051 44.9785C89.0614 44.9785 89.9705 44.1076 90.0528 42.9988C90.0528 41.8902 89.1441 41.0191 87.9873 40.9399C86.831 40.9399 85.9219 41.811 85.8396 42.9196C85.8396 44.0283 86.7482 44.8992 87.9051 44.9785Z" fill="#212121"/>
<path d="M97.5712 45.2155C98.8103 45.2155 99.8017 44.2653 99.8844 43.0776C99.8844 41.8898 98.8931 40.9396 97.6535 40.8604C96.4144 40.8604 95.4231 41.8106 95.3403 42.9984C95.3403 44.186 96.3317 45.1366 97.5712 45.2155Z" fill="#212121"/>
<path d="M107.237 45.4534C108.559 45.4534 109.633 44.5032 109.633 43.2364C109.633 41.9694 108.642 40.9399 107.32 40.9399C105.998 40.9399 104.924 41.8902 104.924 43.1572C104.924 44.4244 105.915 45.4534 107.237 45.4534Z" fill="#212121"/>
<path d="M116.904 45.6119C118.226 45.6119 119.3 44.5824 119.3 43.3155C119.3 42.0484 118.226 41.019 116.904 41.019C115.582 41.019 114.508 42.0484 114.508 43.3155C114.508 44.5824 115.582 45.6119 116.904 45.6119Z" fill="#212121"/>
<path d="M126.57 45.6119C127.892 45.6119 128.965 44.6617 128.965 43.3946C128.965 42.1276 127.974 41.0981 126.652 41.0981C125.33 41.0981 124.256 42.0484 124.256 43.3154C124.256 44.5824 125.248 45.6119 126.57 45.6119Z" fill="#212121"/>
<path d="M136.236 45.6909C137.475 45.6909 138.549 44.7407 138.549 43.5527C138.549 42.3649 137.558 41.3354 136.319 41.3354C135.079 41.3354 134.005 42.2857 134.005 43.4735C134.005 44.6614 134.997 45.6909 136.236 45.6909Z" fill="#212121"/>
<path d="M145.902 45.6118C147.059 45.6118 148.05 44.7409 148.05 43.6321C148.05 42.5235 147.141 41.5732 145.985 41.5732C144.828 41.5732 143.836 42.4443 143.836 43.5529C143.836 44.6616 144.746 45.6118 145.902 45.6118Z" fill="#212121"/>
<path d="M155.569 45.4531C156.643 45.4531 157.469 44.6615 157.469 43.632C157.469 42.6024 156.643 41.8105 155.569 41.8105C154.495 41.8105 153.668 42.6024 153.668 43.632C153.668 44.6615 154.495 45.4531 155.569 45.4531Z" fill="#212121"/>
<path d="M165.235 45.3741C166.143 45.3741 166.887 44.6614 166.887 43.7905C166.887 42.9193 166.143 42.2065 165.235 42.2065C164.326 42.2065 163.582 42.9193 163.582 43.7905C163.582 44.6614 164.326 45.3741 165.235 45.3741Z" fill="#212121"/>
<path d="M174.819 45.1368C175.562 45.1368 176.223 44.5822 176.223 43.8694C176.223 43.1569 175.645 42.5234 174.901 42.5234C174.157 42.5234 173.496 43.0777 173.496 43.7906C173.496 44.5029 174.075 45.1368 174.819 45.1368Z" fill="#212121"/>
<path d="M184.484 44.7404C184.897 44.7404 185.31 44.4236 185.31 43.9487C185.31 43.4735 184.98 43.1567 184.484 43.1567C184.071 43.1567 183.658 43.4735 183.658 43.9487C183.658 44.3443 183.989 44.7404 184.484 44.7404Z" fill="#212121"/>
<path d="M194.15 44.1861C194.15 44.1861 194.316 44.1861 194.316 44.0281C194.316 44.0281 194.316 43.8696 194.15 43.8696C194.15 43.8696 193.985 43.8696 193.985 44.0281C193.985 44.0281 193.985 44.1861 194.15 44.1861Z" fill="#212121"/>
<path d="M29.9074 51.946C29.9074 51.946 30.2379 51.788 30.2379 51.6295C30.2379 51.4715 30.0726 51.313 29.9074 51.313C29.7422 51.313 29.5769 51.4715 29.5769 51.6295C29.5769 51.788 29.7422 51.946 29.9074 51.946Z" fill="#212121"/>
<path d="M39.5736 52.8968C40.2346 52.8968 40.7303 52.4219 40.7303 51.7885C40.7303 51.155 40.2346 50.6797 39.5736 50.6797C38.9127 50.6797 38.417 51.155 38.417 51.7885C38.417 52.4219 38.9127 52.8968 39.5736 52.8968Z" fill="#212121"/>
<path d="M49.2395 53.3717C50.1486 53.3717 50.8922 52.7383 50.8922 51.8674C50.8922 50.996 50.2313 50.2837 49.3222 50.2837C48.4136 50.2837 47.6699 50.9172 47.6699 51.7881C47.6699 52.659 48.4136 53.3717 49.2395 53.3717Z" fill="#212121"/>
<path d="M58.9063 53.8467C59.9799 53.8467 60.889 53.0551 60.889 51.9463C60.889 50.9168 60.0626 50.0459 58.9063 50.0459C57.8322 50.0459 56.9231 50.8379 56.9231 51.9463C56.9231 52.9758 57.7495 53.8467 58.9063 53.8467Z" fill="#212121"/>
<path d="M68.4895 54.2433C69.7285 54.2433 70.8026 53.2931 70.8026 52.0257C70.8026 50.8381 69.8113 49.8086 68.4895 49.8086C67.2504 49.8086 66.1763 50.7588 66.1763 52.0257C66.1763 53.2138 67.1676 54.2433 68.4895 54.2433Z" fill="#212121"/>
<path d="M78.1559 54.6388C79.5604 54.6388 80.7995 53.5304 80.7995 52.1842C80.7995 50.838 79.6431 49.6499 78.2386 49.6499C76.8341 49.6499 75.595 50.7587 75.595 52.1049C75.595 53.4511 76.7513 54.6388 78.1559 54.6388Z" fill="#212121"/>
<path d="M87.8223 54.9555C89.3918 54.9555 90.7141 53.7678 90.7141 52.2634C90.7141 50.7586 89.4745 49.4917 87.905 49.4917C86.335 49.4917 85.0132 50.6793 85.0132 52.1841C85.0132 53.6885 86.2527 54.9555 87.8223 54.9555Z" fill="#212121"/>
<path d="M97.4887 55.2722C99.141 55.2722 100.546 54.0053 100.546 52.4216C100.546 50.8379 99.2237 49.4917 97.5715 49.4917C95.9192 49.4917 94.5146 50.7586 94.5146 52.3423C94.5146 53.9264 95.8365 55.2722 97.4887 55.2722Z" fill="#212121"/>
<path d="M107.154 55.431C108.889 55.431 110.294 54.0847 110.294 52.4218C110.294 50.7588 108.889 49.4126 107.154 49.4126C105.419 49.4126 104.015 50.7588 104.015 52.4218C104.015 54.0847 105.419 55.431 107.154 55.431Z" fill="#212121"/>
<path d="M116.821 55.5889C118.556 55.5889 119.961 54.2431 120.043 52.5802C120.043 50.9172 118.639 49.571 116.904 49.4917C115.169 49.4917 113.764 50.8379 113.682 52.5009C113.682 54.1638 115.086 55.5101 116.821 55.5889Z" fill="#212121"/>
<path d="M126.487 55.6683C128.222 55.6683 129.627 54.322 129.627 52.6591C129.627 50.9961 128.222 49.6499 126.487 49.6499C124.752 49.6499 123.348 50.9961 123.348 52.6591C123.348 54.322 124.752 55.6683 126.487 55.6683Z" fill="#212121"/>
<path d="M136.154 55.6684C137.806 55.6684 139.211 54.4014 139.211 52.7385C139.211 51.1548 137.888 49.8086 136.154 49.8086C134.419 49.8086 133.096 51.0755 133.096 52.7385C133.096 54.3222 134.419 55.6684 136.154 55.6684Z" fill="#212121"/>
<path d="M145.737 55.5897C147.307 55.5897 148.629 54.4016 148.629 52.8972C148.629 51.3924 147.389 50.1255 145.82 50.1255C144.25 50.1255 142.928 51.3136 142.928 52.8179C142.928 54.3223 144.167 55.5897 145.737 55.5897Z" fill="#212121"/>
<path d="M155.403 55.4308C156.89 55.4308 158.047 54.322 158.047 52.9762C158.047 51.5507 156.89 50.4419 155.486 50.4419C154.081 50.4419 152.842 51.5507 152.842 52.8969C152.842 54.322 153.999 55.4308 155.403 55.4308Z" fill="#212121"/>
<path d="M165.07 55.2728C166.391 55.2728 167.465 54.3221 167.465 53.0552C167.465 51.7883 166.474 50.7588 165.152 50.7588C163.83 50.7588 162.756 51.709 162.756 52.9764C162.756 54.2433 163.748 55.2728 165.07 55.2728Z" fill="#212121"/>
<path d="M174.736 55.0349C175.81 55.0349 176.719 54.164 176.801 53.1345C176.801 52.105 175.892 51.2341 174.819 51.1548C173.745 51.1548 172.835 52.0257 172.753 53.0552C172.753 54.0847 173.662 54.9556 174.736 55.0349Z" fill="#212121"/>
<path d="M184.402 54.7977C185.31 54.7977 186.054 54.0849 186.054 53.214C186.054 52.3426 185.31 51.6299 184.402 51.6299C183.493 51.6299 182.75 52.3426 182.75 53.214C182.75 54.0849 183.493 54.7977 184.402 54.7977Z" fill="#212121"/>
<path d="M194.068 54.4808C194.729 54.4808 195.225 54.0054 195.225 53.372C195.225 52.7385 194.729 52.2632 194.068 52.2632C193.407 52.2632 192.911 52.7385 192.911 53.372C192.911 54.0054 193.407 54.4808 194.068 54.4808Z" fill="#212121"/>
<path d="M203.734 53.7673C203.734 53.7673 204.064 53.6093 204.064 53.4508C204.064 53.2923 203.899 53.1343 203.734 53.1343C203.569 53.1343 203.404 53.2923 203.404 53.4508C203.404 53.6093 203.569 53.7673 203.734 53.7673Z" fill="#212121"/>
<path d="M20.1586 61.1315C20.1586 61.1315 20.489 60.9735 20.489 60.815C20.489 60.657 20.3238 60.4985 20.1586 60.4985C19.9934 60.4985 19.8281 60.657 19.8281 60.815C19.8281 60.9735 19.9934 61.1315 20.1586 61.1315Z" fill="#212121"/>
<path d="M29.8249 62.0827C30.4859 62.0827 31.0642 61.5281 31.0642 60.8947C31.0642 60.2612 30.4859 59.707 29.8249 59.707C29.164 59.707 28.5857 60.2612 28.5857 60.8947C28.5857 61.5281 29.164 62.0827 29.8249 62.0827Z" fill="#212121"/>
<path d="M39.4911 62.637C40.3998 62.637 41.226 61.9242 41.226 60.974C41.226 60.1031 40.4825 59.311 39.4911 59.311C38.5823 59.311 37.7561 60.0238 37.7561 60.974C37.7561 61.9242 38.4997 62.637 39.4911 62.637Z" fill="#212121"/>
<path d="M49.0745 63.191C50.2313 63.191 51.2226 62.3201 51.3049 61.1324C51.3049 60.0236 50.3963 59.0734 49.1572 58.9941C48.0004 58.9941 47.009 59.865 46.9263 61.0531C46.9263 62.2408 47.8354 63.1121 49.0745 63.191Z" fill="#212121"/>
<path d="M58.7408 63.6666C60.1454 63.6666 61.3845 62.5578 61.3845 61.2116C61.3845 59.8654 60.2281 58.6777 58.8236 58.6777C57.419 58.6777 56.1799 59.7865 56.1799 61.1327C56.1799 62.4785 57.3363 63.6666 58.7408 63.6666Z" fill="#212121"/>
<path d="M68.4067 64.1411C70.0594 64.1411 71.3813 62.8742 71.3813 61.2905C71.3813 59.7069 70.0594 58.4399 68.4067 58.4399C66.7544 58.4399 65.4326 59.7069 65.4326 61.2905C65.4326 62.8742 66.7544 64.1411 68.4067 64.1411Z" fill="#212121"/>
<path d="M78.0731 64.5375C79.8909 64.5375 81.3781 63.1913 81.3781 61.4491C81.3781 59.7073 79.9736 58.2817 78.1559 58.2817C76.3381 58.2817 74.8513 59.628 74.8513 61.3698C74.8513 63.112 76.2559 64.5375 78.0731 64.5375Z" fill="#212121"/>
<path d="M87.7396 64.8542C89.7227 64.8542 91.2923 63.3499 91.2923 61.5283C91.2923 59.6279 89.7227 58.1235 87.8223 58.1235C85.8396 58.1235 84.27 59.6279 84.27 61.449C84.27 63.2706 85.8396 64.8542 87.7396 64.8542Z" fill="#212121"/>
<path d="M97.4055 65.1707C99.4709 65.1707 101.124 63.587 101.206 61.6073C101.206 59.6276 99.5536 58.0439 97.4882 57.9646C95.4227 57.8853 93.7705 59.5483 93.6877 61.528C93.6877 63.5077 95.34 65.0914 97.4055 65.1707Z" fill="#212121"/>
<path d="M107.072 65.3294C109.22 65.3294 110.955 63.7458 110.955 61.6868C110.955 59.6278 109.303 57.9648 107.155 57.9648C105.006 57.9648 103.271 59.5489 103.271 61.6075C103.271 63.6665 104.924 65.3294 107.072 65.3294Z" fill="#212121"/>
<path d="M116.655 65.4874C118.804 65.4874 120.539 63.8244 120.539 61.7659C120.539 59.7069 118.804 58.0439 116.655 58.0439C114.508 58.0439 112.773 59.7069 112.773 61.6866C112.773 63.7456 114.508 65.4085 116.573 65.4085L116.655 65.4874Z" fill="#212121"/>
<path d="M126.322 65.5667C128.47 65.5667 130.205 63.9831 130.205 61.9241C130.205 59.8651 128.552 58.2021 126.405 58.2021C124.256 58.2021 122.521 59.7858 122.521 61.8448C122.521 63.9038 124.174 65.5667 126.322 65.5667Z" fill="#212121"/>
<path d="M135.988 65.5669C138.054 65.5669 139.789 63.9832 139.789 62.0035C139.789 60.0238 138.136 58.3608 136.071 58.3608C134.006 58.3608 132.271 59.9445 132.271 61.9242C132.271 63.9039 133.923 65.5669 135.988 65.5669Z" fill="#212121"/>
<path d="M145.655 65.4874C147.637 65.4874 149.207 63.983 149.29 62.0822C149.29 60.1818 147.72 58.6774 145.737 58.5981C143.754 58.5981 142.185 60.1025 142.102 62.0034C142.102 63.9038 143.671 65.4081 145.655 65.4874Z" fill="#212121"/>
<path d="M155.32 65.329C157.138 65.329 158.625 63.9039 158.708 62.1617C158.708 60.4194 157.22 58.9943 155.403 58.915C153.585 58.915 152.098 60.3406 152.016 62.0824C152.016 63.8246 153.503 65.2501 155.32 65.329Z" fill="#212121"/>
<path d="M164.987 65.1706C166.639 65.1706 167.961 63.9037 168.044 62.32C168.044 60.7364 166.722 59.4694 165.07 59.3901C163.417 59.3901 162.095 60.6571 162.013 62.2407C162.013 63.8244 163.335 65.0913 164.987 65.1706Z" fill="#212121"/>
<path d="M174.653 64.8541C176.14 64.8541 177.297 63.7453 177.297 62.3991C177.297 60.974 176.14 59.8652 174.736 59.8652C173.249 59.8652 172.092 60.974 172.092 62.3202C172.092 63.7453 173.249 64.8541 174.653 64.8541Z" fill="#212121"/>
<path d="M184.319 64.5372C185.558 64.5372 186.55 63.587 186.55 62.4782C186.55 61.2905 185.558 60.3403 184.402 60.3403C183.245 60.3403 182.171 61.2905 182.171 62.3993C182.171 63.587 183.162 64.5372 184.319 64.5372Z" fill="#212121"/>
<path d="M193.985 64.2997C194.977 64.2997 195.72 63.587 195.803 62.6368C195.803 61.6866 195.06 60.9738 194.068 60.8945C193.077 60.8945 192.333 61.6073 192.25 62.5575C192.25 63.5077 192.994 64.2204 193.985 64.2997Z" fill="#212121"/>
<path d="M203.652 63.9037C204.396 63.9037 204.974 63.3496 204.974 62.7161C204.974 62.0033 204.396 61.4487 203.735 61.4487C202.991 61.4487 202.413 62.0033 202.413 62.6368C202.413 63.3496 202.991 63.9037 203.652 63.9037Z" fill="#212121"/>
<path d="M213.318 63.1115C213.318 63.1115 213.648 62.9535 213.648 62.795C213.648 62.637 213.483 62.4785 213.318 62.4785C213.153 62.4785 212.987 62.637 212.987 62.795C212.987 62.9535 213.153 63.1115 213.318 63.1115Z" fill="#212121"/>
<path d="M10.4099 70.0802C10.4099 70.0802 10.5751 70.0802 10.5751 69.9217C10.5751 69.9217 10.5751 69.7637 10.4099 69.7637C10.4099 69.7637 10.2446 69.7637 10.2446 69.9217C10.2446 69.9217 10.2446 70.0802 10.4099 70.0802Z" fill="#212121"/>
<path d="M20.0761 71.1893C20.737 71.1893 21.2328 70.714 21.2328 70.0805C21.2328 69.4471 20.737 68.9722 20.0761 68.9722C19.4152 68.9722 18.9194 69.4471 18.9194 70.0805C18.9194 70.714 19.4152 71.1893 20.0761 71.1893Z" fill="#212121"/>
<path d="M29.7422 71.8228C30.6509 71.8228 31.4771 71.11 31.4771 70.2391C31.4771 69.3678 30.7336 68.5762 29.8248 68.5762C28.916 68.5762 28.0898 69.2889 28.0898 70.1598C28.0898 71.0307 28.8334 71.8228 29.7422 71.8228Z" fill="#212121"/>
<path d="M39.3258 72.377C40.5651 72.377 41.5565 71.4268 41.5565 70.3184C41.5565 69.1304 40.5651 68.1802 39.4084 68.1802C38.1691 68.1802 37.1777 69.1304 37.1777 70.2392C37.1777 71.4268 38.1691 72.377 39.3258 72.377Z" fill="#212121"/>
<path d="M48.9918 72.9312C50.4791 72.9312 51.7181 71.8228 51.7181 70.3973C51.7181 68.9718 50.5613 67.7842 49.0745 67.7842C47.5872 67.7842 46.3481 68.893 46.3481 70.318C46.3481 71.7436 47.5045 72.9312 48.9918 72.9312Z" fill="#212121"/>
<path d="M58.6581 73.4857C60.3931 73.4857 61.7977 72.1394 61.7977 70.4765C61.7977 68.8135 60.3931 67.4673 58.6581 67.4673C56.9231 67.4673 55.519 68.8135 55.519 70.4765C55.519 72.1394 56.9231 73.4857 58.6581 73.4857Z" fill="#212121"/>
<path d="M68.3245 73.9607C70.3072 73.9607 71.8768 72.4563 71.8768 70.6352C71.8768 68.7344 70.3072 67.23 68.4068 67.23C66.424 67.23 64.8545 68.7344 64.8545 70.5559C64.8545 72.4563 66.424 73.9607 68.3245 73.9607Z" fill="#212121"/>
<path d="M77.9909 74.3563C80.1386 74.3563 81.8736 72.6934 81.8736 70.7137C81.8736 68.734 80.1386 66.9922 78.0732 66.9922C75.9254 66.9922 74.1904 68.6547 74.1904 70.6344C74.1904 72.6934 75.9254 74.3563 77.9909 74.3563Z" fill="#212121"/>
<path d="M87.5746 74.6735C89.8877 74.6735 91.7055 72.9312 91.7055 70.7934C91.7055 68.5758 89.8877 66.834 87.6573 66.834C85.4264 66.834 83.5264 68.5762 83.5264 70.7141C83.5264 72.9312 85.3441 74.6735 87.5746 74.6735Z" fill="#212121"/>
<path d="M97.2405 74.9901C99.6364 74.9901 101.536 73.169 101.619 70.8726C101.619 68.5762 99.7191 66.7546 97.3232 66.6758C94.9273 66.6758 93.0269 68.4969 92.9446 70.7933C92.9446 73.0897 94.8446 74.9108 97.2405 74.9901Z" fill="#212121"/>
<path d="M106.907 75.1487C109.385 75.1487 111.368 73.3272 111.368 70.9515C111.368 68.5762 109.468 66.6758 106.989 66.6758C104.511 66.6758 102.528 68.4969 102.528 70.8726C102.528 73.2479 104.428 75.1487 106.907 75.1487Z" fill="#212121"/>
<path d="M116.573 75.3069C119.051 75.3069 121.034 73.4065 121.034 71.1101C121.034 68.7344 119.051 66.834 116.655 66.834C114.177 66.834 112.194 68.7344 112.194 71.0308C112.194 73.4065 114.177 75.3069 116.573 75.3069Z" fill="#212121"/>
<path d="M126.239 75.386C128.718 75.386 130.7 73.5649 130.7 71.1892C130.7 68.8135 128.8 66.9131 126.322 66.9131C123.843 66.9131 121.86 68.7342 121.86 71.1099C121.86 73.4856 123.76 75.386 126.239 75.386Z" fill="#212121"/>
<path d="M135.906 75.3861C138.301 75.3861 140.202 73.5645 140.285 71.2681C140.367 68.9717 138.384 67.1506 135.988 67.0713C133.592 67.0713 131.692 68.8928 131.61 71.1893C131.61 73.4857 133.51 75.3068 135.906 75.3861Z" fill="#212121"/>
<path d="M145.572 75.3067C147.885 75.3067 149.703 73.5649 149.785 71.3473C149.785 69.1302 147.968 67.3879 145.654 67.3091C143.341 67.3091 141.524 69.0509 141.441 71.2685C141.358 73.4856 143.258 75.2274 145.572 75.3067Z" fill="#212121"/>
<path d="M155.238 75.1487C157.386 75.1487 159.121 73.4858 159.121 71.4268C159.121 69.3678 157.386 67.7048 155.32 67.626C153.172 67.626 151.437 69.2889 151.437 71.3475C151.437 73.4065 153.172 75.0694 155.32 75.0694L155.238 75.1487Z" fill="#212121"/>
<path d="M164.904 74.9112C166.887 74.9112 168.457 73.4064 168.54 71.506C168.54 69.6056 166.97 68.1008 164.987 68.0219C163.004 67.9426 161.434 69.5263 161.352 71.4267C161.352 73.3271 162.921 74.8319 164.904 74.9112Z" fill="#212121"/>
<path d="M174.57 74.6734C176.305 74.6734 177.793 73.3272 177.793 71.6642C177.793 70.0013 176.388 68.5762 174.653 68.5762C172.918 68.5762 171.431 69.9224 171.431 71.5854C171.431 73.2483 172.835 74.6734 174.57 74.6734Z" fill="#212121"/>
<path d="M184.236 74.3567C185.724 74.3567 186.963 73.2479 186.963 71.7435C186.963 70.318 185.806 69.1304 184.236 69.1304C182.75 69.1304 181.51 70.2387 181.51 71.7435C181.51 73.1686 182.667 74.3567 184.236 74.3567Z" fill="#212121"/>
<path d="M193.821 73.9604C195.06 73.9604 196.051 73.0102 196.134 71.8226C196.134 70.6345 195.142 69.6843 193.903 69.6055C192.664 69.6055 191.672 70.5557 191.59 71.7433C191.59 72.9309 192.581 73.8816 193.821 73.9604Z" fill="#212121"/>
<path d="M203.487 73.5647C204.478 73.5647 205.221 72.8519 205.221 71.9017C205.221 70.9515 204.478 70.2388 203.487 70.2388C202.495 70.2388 201.752 70.9515 201.752 71.9017C201.752 72.8519 202.495 73.5647 203.487 73.5647Z" fill="#212121"/>
<path d="M213.153 73.169C213.814 73.169 214.392 72.6937 214.392 72.0602C214.392 71.4267 213.896 70.8726 213.235 70.8726C212.575 70.8726 211.996 71.3474 211.996 71.9809C211.996 72.6148 212.492 73.169 213.153 73.169Z" fill="#212121"/>
<path d="M222.819 72.2184C222.819 72.2184 222.984 72.2184 222.984 72.0599C222.984 72.0599 222.984 71.9019 222.819 71.9019C222.819 71.9019 222.654 71.9019 222.654 72.0599C222.654 72.0599 222.654 72.2184 222.819 72.2184Z" fill="#212121"/>
<path d="M10.3272 79.9004C10.3272 79.9004 10.9882 79.5835 11.0708 79.2665C11.0708 78.8702 10.7403 78.6326 10.4098 78.5532C9.99676 78.5532 9.7489 78.8702 9.66626 79.1871C9.66626 79.5835 9.99676 79.8211 10.3272 79.9004Z" fill="#212121"/>
<path d="M19.911 80.7707C20.7371 80.7707 21.4807 80.1368 21.4807 79.3451C21.4807 78.5531 20.8197 77.8403 19.9936 77.8403C19.1674 77.8403 18.4238 78.4742 18.4238 79.2659C18.4238 80.0579 19.0848 80.7707 19.911 80.7707Z" fill="#212121"/>
<path d="M29.5769 81.4042C30.7336 81.4042 31.6423 80.5329 31.6423 79.4245C31.6423 78.3157 30.7336 77.4448 29.5769 77.4448C28.4202 77.4448 27.5115 78.3157 27.5115 79.4245C27.5115 80.5329 28.4202 81.4042 29.5769 81.4042Z" fill="#212121"/>
<path d="M39.243 82.0373C40.6475 82.0373 41.8868 80.9289 41.8868 79.5827C41.8868 78.2365 40.7301 77.0488 39.3257 77.0488C37.9212 77.0488 36.6819 78.1572 36.6819 79.5034C36.6819 80.8496 37.8385 82.0373 39.243 82.0373Z" fill="#212121"/>
<path d="M48.9096 82.5919C50.6446 82.5919 52.0491 81.325 52.0491 79.662C52.0491 77.9991 50.7273 76.6528 48.9923 76.6528C47.2573 76.6528 45.8528 77.9198 45.8528 79.5827C45.8528 81.2457 47.1746 82.5919 48.9096 82.5919Z" fill="#212121"/>
<path d="M58.5755 83.1461C60.5586 83.1461 62.2109 81.6417 62.2109 79.7413C62.2109 77.8405 60.6409 76.2568 58.6582 76.2568C56.6755 76.2568 55.0232 77.7616 55.0232 79.662C55.0232 81.5624 56.5927 83.1461 58.5755 83.1461Z" fill="#212121"/>
<path d="M68.2423 83.6213C70.4727 83.6213 72.2905 81.9583 72.2905 79.82C72.2905 77.6822 70.5555 75.9399 68.3245 75.9399C66.0941 75.9399 64.2764 77.6029 64.2764 79.7412C64.2764 81.879 66.0114 83.6213 68.2423 83.6213Z" fill="#212121"/>
<path d="M77.8255 84.017C80.2214 84.017 82.1214 82.1959 82.2041 79.8995C82.2041 77.603 80.3041 75.7819 77.9082 75.7026C75.5123 75.7026 73.6118 77.5237 73.5295 79.8202C73.5295 82.1166 75.4295 83.9381 77.8255 84.017Z" fill="#212121"/>
<path d="M87.4918 84.3341C89.9705 84.3341 92.0359 82.4332 92.1182 79.9786C92.1182 77.6029 90.1355 75.6232 87.5746 75.5439C85.0959 75.5439 83.0305 77.4448 82.9478 79.8994C82.9478 82.2751 84.9309 84.2548 87.4918 84.3341Z" fill="#212121"/>
<path d="M97.1582 84.6508C99.7191 84.6508 101.867 82.6712 101.95 80.2161C102.033 77.7616 99.8846 75.7026 97.3232 75.6233C94.7623 75.5444 92.6141 77.603 92.5319 80.058C92.4491 82.5126 94.5969 84.5716 97.1582 84.6508Z" fill="#212121"/>
<path d="M106.825 84.8089C109.468 84.8089 111.699 82.8292 111.699 80.2161C111.699 77.6822 109.551 75.5439 106.907 75.5439C104.263 75.5439 102.033 77.6029 102.033 80.1368C102.033 82.6711 104.18 84.8089 106.825 84.8089Z" fill="#212121"/>
<path d="M116.491 84.9672C119.135 84.9672 121.365 82.9086 121.365 80.3743C121.365 77.8405 119.217 75.7026 116.573 75.7026C113.93 75.7026 111.699 77.7612 111.699 80.2955C111.699 82.8293 113.847 84.9672 116.491 84.9672Z" fill="#212121"/>
<path d="M126.157 85.0472C128.8 85.0472 131.031 83.0675 131.031 80.4544C131.031 77.9201 128.966 75.7822 126.24 75.7822C123.595 75.7822 121.365 77.8412 121.365 80.3751C121.365 82.9089 123.513 85.0472 126.157 85.0472Z" fill="#212121"/>
<path d="M135.823 85.0463C138.467 85.0463 140.615 83.0667 140.615 80.5328C140.615 77.9989 138.549 75.9399 135.906 75.9399C133.262 75.9399 131.114 77.9196 131.114 80.4535C131.114 82.9878 133.179 85.0463 135.823 85.0463Z" fill="#212121"/>
<path d="M145.489 84.9679C148.05 84.9679 150.116 83.0675 150.116 80.6125C150.116 78.1579 148.133 76.1782 145.572 76.1782C143.011 76.1782 140.945 78.0786 140.945 80.5332C140.945 82.9882 142.928 84.9679 145.489 84.9679Z" fill="#212121"/>
<path d="M155.073 84.8885C157.469 84.8885 159.452 83.067 159.452 80.7706C159.452 78.4741 157.551 76.5737 155.155 76.5737C152.76 76.5737 150.777 78.3953 150.777 80.6917C150.777 82.9881 152.677 84.8885 155.073 84.8885Z" fill="#212121"/>
<path d="M164.739 84.6506C166.97 84.6506 168.787 82.9881 168.787 80.8498C168.787 78.712 167.052 76.9697 164.821 76.9697C162.591 76.9697 160.773 78.6327 160.773 80.7705C160.773 82.9088 162.508 84.6506 164.739 84.6506Z" fill="#212121"/>
<path d="M174.405 84.4131C176.388 84.4131 178.04 82.9088 178.123 80.9291C178.123 79.0287 176.553 77.4446 174.488 77.3657C172.505 77.3657 170.853 78.8701 170.77 80.8498C170.77 82.7502 172.34 84.3339 174.405 84.4131Z" fill="#212121"/>
<path d="M184.071 84.0171C185.806 84.0171 187.211 82.6714 187.293 81.0084C187.293 79.3454 185.889 77.9992 184.154 77.9199C182.419 77.9199 181.015 79.2661 180.932 80.9291C180.932 82.5921 182.336 83.9383 184.071 84.0171Z" fill="#212121"/>
<path d="M193.738 83.6214C195.225 83.6214 196.381 82.5126 196.381 81.0871C196.381 79.662 195.225 78.5532 193.738 78.5532C192.251 78.5532 191.094 79.662 191.094 81.0871C191.094 82.5126 192.251 83.6214 193.738 83.6214Z" fill="#212121"/>
<path d="M203.404 83.1461C204.56 83.1461 205.469 82.2752 205.552 81.1665C205.552 80.0581 204.643 79.1868 203.486 79.1079C202.33 79.1079 201.421 79.9788 201.338 81.0876C201.338 82.196 202.247 83.0673 203.404 83.1461Z" fill="#212121"/>
<path d="M213.07 82.7504C213.896 82.7504 214.64 82.1169 214.64 81.2456C214.64 80.454 213.979 79.7412 213.07 79.7412C212.161 79.7412 211.5 80.3747 211.5 81.2456C211.5 82.0376 212.161 82.7504 213.07 82.7504Z" fill="#212121"/>
<path d="M222.736 82.0374C222.736 82.0374 223.479 81.7207 223.479 81.3251C223.479 80.929 223.149 80.6123 222.736 80.6123C222.323 80.6123 221.993 80.929 221.993 81.3251C221.993 81.7207 222.323 82.0374 222.736 82.0374Z" fill="#212121"/>
<path d="M0.578468 88.4524V88.3726H0.49585L0.578468 88.4524Z" fill="#212121"/>
<path d="M10.1618 89.6395C10.8227 89.6395 11.3184 89.1646 11.3184 88.5311C11.3184 87.8977 10.8227 87.4224 10.1618 87.4224C9.50085 87.4224 9.00513 87.8977 9.00513 88.5311C9.00513 89.1646 9.50085 89.6395 10.1618 89.6395Z" fill="#212121"/>
<path d="M19.828 90.2729C20.8194 90.2729 21.5629 89.5602 21.6456 88.61C21.6456 87.6598 20.902 86.947 19.9106 86.8682C18.9192 86.8682 18.1756 87.5805 18.093 88.5311C18.093 89.4813 18.8366 90.1941 19.828 90.2729Z" fill="#212121"/>
<path d="M29.4945 90.9064C30.8163 90.9064 31.8077 89.9562 31.8077 88.6893C31.8077 87.4224 30.8163 86.4722 29.4945 86.4722C28.1726 86.4722 27.1812 87.4224 27.1812 88.6893C27.1812 89.9562 28.1726 90.9064 29.4945 90.9064Z" fill="#212121"/>
<path d="M39.1606 91.5401C40.7304 91.5401 42.0523 90.352 42.0523 88.7684C42.0523 87.264 40.813 85.9971 39.1606 85.9971C37.5909 85.9971 36.269 87.1847 36.269 88.7684C36.269 90.2732 37.5083 91.5401 39.1606 91.5401Z" fill="#212121"/>
<path d="M48.8268 92.1731C50.7268 92.1731 52.2968 90.748 52.2968 88.9265C52.2968 87.1054 50.8095 85.6006 48.9095 85.6006C47.0091 85.6006 45.4395 87.0261 45.4395 88.8476C45.4395 90.6688 46.9264 92.1731 48.8268 92.1731Z" fill="#212121"/>
<path d="M58.4105 92.7278C60.5583 92.7278 62.376 91.0649 62.376 89.0059C62.376 86.9469 60.641 85.2051 58.4928 85.2051C56.3451 85.2051 54.5273 86.868 54.5273 88.9266C54.5273 90.9856 56.2623 92.7278 58.4105 92.7278Z" fill="#212121"/>
<path d="M68.0769 93.203C70.4728 93.203 72.3728 91.3819 72.4555 89.0855C72.4555 86.7891 70.5555 84.9675 68.1596 84.8887C65.7637 84.8887 63.8632 86.7098 63.7805 89.0062C63.7805 91.3026 65.681 93.1242 68.0769 93.203Z" fill="#212121"/>
<path d="M77.7431 93.5988C80.304 93.5988 82.3694 91.6984 82.3694 89.2438C82.3694 86.7888 80.3867 84.8091 77.8258 84.8091C75.2644 84.8091 73.199 86.7095 73.199 89.1645C73.199 91.6191 75.1817 93.5988 77.7431 93.5988Z" fill="#212121"/>
<path d="M87.409 93.9159C90.0526 93.9159 92.2836 91.9362 92.2836 89.323C92.2836 86.7887 90.1354 84.6509 87.4917 84.6509C84.8476 84.6509 82.6172 86.7099 82.6172 89.2437C82.6172 91.7776 84.7654 93.9159 87.409 93.9159Z" fill="#212121"/>
<path d="M97.0754 94.1531C99.8018 94.1531 102.115 92.0945 102.115 89.4021C102.115 86.7889 99.9668 84.5718 97.1577 84.5718C94.4313 84.5718 92.1182 86.6303 92.1182 89.3228C92.1182 91.9359 94.2663 94.1531 97.0754 94.1531Z" fill="#212121"/>
<path d="M106.741 94.3117C109.551 94.3117 111.864 92.1734 111.864 89.4814C111.864 86.7889 109.633 84.5718 106.824 84.5718C104.015 84.5718 101.702 86.7096 101.702 89.4021C101.702 92.0945 103.933 94.3117 106.741 94.3117Z" fill="#212121"/>
<path d="M116.408 94.4703C119.217 94.4703 121.53 92.332 121.53 89.6396C121.53 86.9475 119.3 84.73 116.49 84.73C113.681 84.73 111.368 86.8683 111.368 89.5607C111.368 92.2527 113.599 94.4703 116.408 94.4703Z" fill="#212121"/>
<path d="M125.991 94.4703C128.801 94.4703 131.114 92.332 131.114 89.6396C131.114 86.9475 128.883 84.73 126.074 84.73C123.265 84.73 120.952 86.8683 120.952 89.5607C120.952 92.2527 123.182 94.4703 125.991 94.4703Z" fill="#212121"/>
<path d="M135.658 94.549C138.384 94.549 140.697 92.49 140.697 89.798C140.697 87.1056 138.549 84.9673 135.74 84.9673C132.931 84.9673 130.7 87.0263 130.7 89.7187C130.7 92.4112 132.849 94.549 135.658 94.549Z" fill="#212121"/>
<path d="M145.324 94.4696C147.968 94.4696 150.199 92.4111 150.199 89.8772C150.199 87.3429 148.05 85.2051 145.407 85.2051C142.763 85.2051 140.532 87.2636 140.532 89.7979C140.532 92.3318 142.68 94.4696 145.324 94.4696Z" fill="#212121"/>
<path d="M154.99 94.3909C157.551 94.3909 159.617 92.4112 159.699 90.0355C159.699 87.581 157.634 85.6013 155.155 85.522C152.594 85.522 150.529 87.5017 150.446 89.8774C150.446 92.332 152.511 94.3117 154.99 94.3909Z" fill="#212121"/>
<path d="M164.656 94.2323C167.052 94.2323 169.035 92.4112 169.035 90.1148C169.035 87.8184 167.134 85.918 164.738 85.918C162.343 85.918 160.36 87.7391 160.36 90.0355C160.36 92.3319 162.26 94.2323 164.656 94.2323Z" fill="#212121"/>
<path d="M174.322 93.9153C176.47 93.9153 178.288 92.2524 178.288 90.1938C178.288 88.1348 176.553 86.3926 174.405 86.3926C172.257 86.3926 170.439 88.0555 170.439 90.1145C170.439 92.1735 172.174 93.9153 174.322 93.9153Z" fill="#212121"/>
<path d="M183.989 93.5989C185.889 93.5989 187.459 92.1733 187.541 90.2729C187.541 88.4518 186.054 86.947 184.071 86.8682C182.171 86.8682 180.601 88.2932 180.519 90.1941C180.519 92.0152 182.006 93.5196 183.989 93.5989Z" fill="#212121"/>
<path d="M193.655 93.1238C195.307 93.1238 196.629 91.8564 196.629 90.3521C196.629 88.7684 195.307 87.5015 193.738 87.5015C192.085 87.5015 190.764 88.7684 190.764 90.2728C190.764 91.8564 192.085 93.1238 193.655 93.1238Z" fill="#212121"/>
<path d="M203.321 92.7281C204.643 92.7281 205.717 91.6986 205.717 90.4317C205.717 89.1647 204.643 88.1353 203.321 88.1353C202 88.1353 200.926 89.1647 200.926 90.4317C200.926 91.6986 202 92.7281 203.321 92.7281Z" fill="#212121"/>
<path d="M212.987 92.2526C213.979 92.2526 214.805 91.461 214.805 90.5108C214.805 89.5606 213.979 88.7686 212.987 88.7686C211.996 88.7686 211.169 89.5606 211.169 90.5108C211.169 91.461 211.996 92.2526 212.987 92.2526Z" fill="#212121"/>
<path d="M222.654 91.7776C223.315 91.7776 223.893 91.2234 223.893 90.5895C223.893 89.956 223.315 89.4019 222.654 89.4019C221.993 89.4019 221.414 89.956 221.414 90.5895C221.414 91.2234 221.993 91.7776 222.654 91.7776Z" fill="#212121"/>
<path d="M232.32 90.7487V90.6689L232.237 90.7487H232.32Z" fill="#212121"/>
<path d="M0.412891 97.8744C0.412891 97.8744 0.660743 97.7952 0.660743 97.6371C0.660743 97.4787 0.578125 97.3994 0.412891 97.3994C0.247656 97.3994 0.165039 97.4787 0.165039 97.6371C0.165039 97.7952 0.247656 97.8744 0.412891 97.8744Z" fill="#212121"/>
<path d="M10.0794 99.0631C10.823 99.0631 11.4013 98.5085 11.4013 97.7962C11.4013 97.0834 10.823 96.5288 10.0794 96.5288C9.33589 96.5288 8.75757 97.0834 8.75757 97.7962C8.75757 98.5085 9.33589 99.0631 10.0794 99.0631Z" fill="#212121"/>
<path d="M19.7456 99.6966C20.8197 99.6966 21.6458 98.9045 21.7285 97.875C21.7285 96.8455 20.9023 96.0539 19.8283 95.9746C18.7542 95.9746 17.928 96.7667 17.8455 97.7957C17.8455 98.8252 18.6716 99.6173 19.7456 99.6966Z" fill="#212121"/>
<path d="M29.4117 100.33C30.8162 100.33 31.9728 99.3003 31.9728 97.9541C31.9728 96.6079 30.8987 95.4995 29.4942 95.4995C28.0897 95.4995 26.9331 96.529 26.9331 97.8748C26.9331 99.221 28.0072 100.33 29.4117 100.33Z" fill="#212121"/>
<path d="M39.0778 100.963C40.8128 100.963 42.1347 99.6966 42.2173 98.0336C42.2173 96.3706 40.8954 95.1037 39.1605 95.0244C37.4255 95.0244 36.1036 96.2913 36.021 97.9543C36.021 99.6173 37.3429 100.884 39.0778 100.963Z" fill="#212121"/>
<path d="M48.6618 101.597C50.6445 101.597 52.2968 100.092 52.3795 98.1127C52.3795 96.2118 50.81 94.6282 48.7445 94.5493C46.7618 94.5493 45.1092 96.0537 45.0266 98.0334C45.0266 99.9338 46.5963 101.517 48.6618 101.597Z" fill="#212121"/>
<path d="M58.3277 102.151C60.5586 102.151 62.4586 100.409 62.4586 98.2709C62.4586 96.1331 60.6409 94.3115 58.4105 94.3115C56.1795 94.3115 54.2795 96.0538 54.2795 98.1916C54.2795 100.33 56.0973 102.151 58.3277 102.151Z" fill="#212121"/>
<path d="M67.9936 102.626C70.4722 102.626 72.5377 100.726 72.5377 98.35C72.5377 95.9743 70.555 93.9946 68.0763 93.9946C65.5977 93.9946 63.5322 95.895 63.5322 98.2707C63.5322 100.646 65.5154 102.626 67.9936 102.626Z" fill="#212121"/>
<path d="M77.66 103.023C80.3041 103.023 82.4518 101.043 82.5346 98.5091C82.5346 95.9748 80.4691 93.9162 77.8255 93.8369C75.1818 93.8369 73.0337 95.8166 72.9509 98.3505C72.9509 100.884 75.0164 102.943 77.66 103.023Z" fill="#212121"/>
<path d="M87.3264 103.26C90.0528 103.26 92.3664 101.201 92.3664 98.5085C92.3664 95.8161 90.2183 93.6782 87.4092 93.6782C84.6828 93.6782 82.3696 95.7372 82.3696 98.4297C82.3696 101.043 84.5178 103.26 87.3264 103.26Z" fill="#212121"/>
<path d="M96.9927 103.497C99.8018 103.497 102.115 101.36 102.198 98.6671C102.198 95.9746 99.9668 93.7575 97.1581 93.6782C94.349 93.6782 92.0359 95.8161 91.9531 98.5085C91.9531 101.201 94.1836 103.418 96.9927 103.497Z" fill="#212121"/>
<path d="M106.576 103.655C109.468 103.655 111.781 101.518 111.781 98.7458C111.781 95.9745 109.551 93.7573 106.659 93.7573C103.767 93.7573 101.454 95.8952 101.454 98.6669C101.454 101.438 103.685 103.655 106.576 103.655Z" fill="#212121"/>
<path d="M116.243 103.814C119.134 103.814 121.448 101.676 121.53 98.9043C121.53 96.133 119.299 93.9154 116.408 93.8365C113.516 93.7572 111.203 95.9744 111.12 98.7461C111.12 101.517 113.351 103.735 116.243 103.814Z" fill="#212121"/>
<path d="M125.909 103.893C128.8 103.893 131.114 101.755 131.114 98.9835C131.114 96.2118 128.883 93.9946 125.991 93.9946C123.1 93.9946 120.786 96.1329 120.786 98.9042C120.786 101.676 123.017 103.893 125.909 103.893Z" fill="#212121"/>
<path d="M135.575 103.893C138.384 103.893 140.697 101.755 140.78 99.0627C140.78 96.3706 138.549 94.1531 135.74 94.0742C132.931 94.0742 130.618 96.2121 130.535 98.9045C130.453 101.597 132.766 103.814 135.575 103.893Z" fill="#212121"/>
<path d="M145.241 103.893C147.968 103.893 150.281 101.834 150.281 99.1418C150.281 96.5287 148.133 94.3115 145.324 94.3115C142.597 94.3115 140.284 96.3705 140.284 99.063C140.284 101.676 142.432 103.893 145.241 103.893Z" fill="#212121"/>
<path d="M154.908 103.814C157.551 103.814 159.782 101.755 159.782 99.221C159.782 96.6872 157.634 94.5493 154.991 94.5493C152.346 94.5493 150.116 96.5286 150.116 99.1422C150.116 101.676 152.181 103.814 154.908 103.814Z" fill="#212121"/>
<path d="M164.574 103.656C167.052 103.656 169.118 101.755 169.118 99.3798C169.118 97.0041 167.135 95.0244 164.656 95.0244C162.178 95.0244 160.112 96.9248 160.112 99.3005C160.112 101.676 162.095 103.656 164.574 103.656Z" fill="#212121"/>
<path d="M174.24 103.338C176.553 103.338 178.371 101.597 178.454 99.3795C178.454 97.1619 176.636 95.4201 174.323 95.3408C172.01 95.3408 170.192 97.0831 170.109 99.3002C170.109 101.517 171.927 103.26 174.24 103.338Z" fill="#212121"/>
<path d="M183.906 103.022C185.971 103.022 187.624 101.518 187.624 99.538C187.624 97.5583 186.054 95.9746 183.989 95.9746C181.923 95.9746 180.271 97.479 180.271 99.4587C180.271 101.438 181.841 103.022 183.906 103.022Z" fill="#212121"/>
<path d="M193.572 102.626C195.307 102.626 196.712 101.28 196.712 99.6171C196.712 97.9541 195.307 96.6079 193.572 96.6079C191.837 96.6079 190.433 97.9541 190.433 99.6171C190.433 101.28 191.837 102.626 193.572 102.626Z" fill="#212121"/>
<path d="M203.239 102.151C204.643 102.151 205.8 101.043 205.8 99.6967C205.8 98.3505 204.643 97.2417 203.239 97.2417C201.834 97.2417 200.677 98.3505 200.677 99.6967C200.677 101.043 201.834 102.151 203.239 102.151Z" fill="#212121"/>
<path d="M212.905 101.676C213.979 101.676 214.888 100.884 214.888 99.8545C214.888 98.825 214.061 97.9541 212.987 97.9541C211.913 97.9541 211.005 98.7461 211.005 99.7752C211.005 100.805 211.831 101.676 212.905 101.676Z" fill="#212121"/>
<path d="M222.571 101.201C223.314 101.201 223.975 100.647 223.975 99.8545C223.975 99.0629 223.397 98.5083 222.571 98.5083C221.827 98.5083 221.166 99.0629 221.166 99.8545C221.166 100.567 221.745 101.201 222.571 101.201Z" fill="#212121"/>
<path d="M232.237 100.25C232.237 100.25 232.485 100.171 232.485 100.013C232.485 99.8547 232.403 99.7759 232.237 99.7759C232.072 99.7759 231.99 99.8547 231.99 100.013C231.99 100.171 232.072 100.25 232.237 100.25Z" fill="#212121"/>
<path d="M0.330469 107.219C0.330469 107.219 0.660936 107.06 0.660936 106.902C0.660936 106.744 0.495705 106.585 0.330469 106.585C0.165235 106.585 0 106.744 0 106.902C0 107.06 0.165235 107.219 0.330469 107.219Z" fill="#212121"/>
<path d="M9.99703 108.328C10.7406 108.328 11.4015 107.774 11.4015 106.981C11.4015 106.269 10.8232 105.635 9.99703 105.635C9.17085 105.635 8.59253 106.19 8.59253 106.981C8.59253 107.694 9.17085 108.328 9.99703 108.328Z" fill="#212121"/>
<path d="M19.663 108.961C20.737 108.961 21.6458 108.169 21.6458 107.061C21.6458 105.952 20.8196 105.16 19.663 105.16C18.5064 105.16 17.6802 105.952 17.6802 107.061C17.6802 108.09 18.5064 108.961 19.663 108.961Z" fill="#212121"/>
<path d="M29.2467 109.674C30.6512 109.674 31.8078 108.565 31.8078 107.219C31.8078 105.873 30.6512 104.764 29.2467 104.764C27.8422 104.764 26.6855 105.873 26.6855 107.219C26.6855 108.565 27.8422 109.674 29.2467 109.674Z" fill="#212121"/>
<path d="M38.9126 110.307C40.6476 110.307 42.0521 108.961 42.1347 107.298C42.1347 105.635 40.7302 104.289 38.9952 104.21C37.2603 104.21 35.8558 105.556 35.7732 107.219C35.7732 108.882 37.1777 110.228 38.9126 110.307Z" fill="#212121"/>
<path d="M48.5786 110.94C50.6441 110.94 52.2963 109.357 52.2963 107.456C52.2963 105.477 50.6441 103.893 48.6613 103.893C46.5959 103.893 44.9436 105.477 44.9436 107.377C44.9436 109.357 46.5959 110.94 48.5786 110.94Z" fill="#212121"/>
<path d="M58.2454 111.495C60.5586 111.495 62.4586 109.753 62.4586 107.536C62.4586 105.319 60.6413 103.497 58.3277 103.497C56.0145 103.497 54.1145 105.239 54.1145 107.456C54.1145 109.674 55.9318 111.495 58.2454 111.495Z" fill="#212121"/>
<path d="M67.9113 111.97C70.3899 111.97 72.4554 110.07 72.5376 107.615C72.5376 105.24 70.5549 103.26 67.994 103.181C65.5154 103.181 63.4499 105.081 63.3672 107.536C63.3672 109.911 65.3499 111.891 67.9113 111.97Z" fill="#212121"/>
<path d="M77.5777 112.287C80.2213 112.287 82.4523 110.228 82.4523 107.694C82.4523 105.16 80.3041 103.022 77.6604 103.022C75.0163 103.022 72.7859 105.081 72.7859 107.615C72.7859 110.149 74.9341 112.287 77.5777 112.287Z" fill="#212121"/>
<path d="M87.1614 112.604C89.9705 112.604 92.2836 110.466 92.2836 107.773C92.2836 105.081 90.0532 102.864 87.2441 102.864C84.435 102.864 82.1218 105.002 82.1218 107.694C82.1218 110.387 84.3523 112.604 87.1614 112.604Z" fill="#212121"/>
<path d="M96.8278 112.762C99.6369 112.762 102.033 110.624 102.033 107.853C102.033 105.081 99.8019 102.864 96.9106 102.864C94.1015 102.864 91.7056 105.002 91.7056 107.773C91.7056 110.466 93.936 112.762 96.8278 112.762Z" fill="#212121"/>
<path d="M106.494 112.999C109.385 112.999 111.698 110.782 111.781 108.011C111.781 105.239 109.468 103.022 106.576 102.943C103.684 102.943 101.371 105.16 101.289 107.931C101.289 110.703 103.602 112.92 106.494 112.999Z" fill="#212121"/>
<path d="M116.16 113.079C119.052 113.079 121.365 110.861 121.448 108.09C121.448 105.318 119.135 103.101 116.243 103.022C113.351 102.943 111.038 105.24 110.956 108.011C110.956 110.783 113.269 113.079 116.16 113.079Z" fill="#212121"/>
<path d="M125.826 113.158C128.718 113.158 131.031 110.941 131.114 108.169C131.196 105.397 128.8 103.101 125.909 103.101C123.017 103.101 120.621 105.319 120.621 108.09C120.621 110.862 122.935 113.079 125.826 113.158Z" fill="#212121"/>
<path d="M135.492 113.158C138.301 113.158 140.697 111.02 140.697 108.248C140.697 105.556 138.467 103.26 135.575 103.26C132.766 103.26 130.37 105.398 130.37 108.169C130.37 110.861 132.601 113.158 135.492 113.158Z" fill="#212121"/>
<path d="M145.159 113.237C147.968 113.237 150.281 111.099 150.281 108.407C150.281 105.714 148.051 103.497 145.241 103.497C142.432 103.497 140.119 105.635 140.119 108.327C140.119 111.02 142.35 113.237 145.159 113.237Z" fill="#212121"/>
<path d="M154.825 113.158C157.551 113.158 159.699 111.099 159.782 108.565C159.782 105.952 157.634 103.893 154.99 103.814C152.264 103.814 150.115 105.873 150.033 108.407C150.033 111.02 152.181 113.079 154.825 113.158Z" fill="#212121"/>
<path d="M164.491 113C167.052 113 169.118 111.099 169.118 108.644C169.118 106.19 167.135 104.21 164.574 104.21C162.013 104.21 159.947 106.11 159.947 108.565C159.947 111.02 161.93 113 164.491 113Z" fill="#212121"/>
<path d="M174.157 112.683C176.47 112.683 178.37 110.941 178.453 108.644C178.453 106.427 176.635 104.606 174.24 104.527C171.926 104.527 170.026 106.269 169.944 108.566C169.944 110.783 171.761 112.604 174.157 112.683Z" fill="#212121"/>
<path d="M183.741 112.366C185.806 112.366 187.541 110.782 187.541 108.803C187.541 106.823 185.889 105.16 183.824 105.16C181.758 105.16 180.023 106.744 180.023 108.724C180.023 110.703 181.675 112.366 183.741 112.366Z" fill="#212121"/>
<path d="M193.407 111.891C195.142 111.891 196.629 110.545 196.629 108.882C196.629 107.219 195.225 105.794 193.49 105.794C191.755 105.794 190.268 107.14 190.268 108.803C190.268 110.466 191.672 111.891 193.407 111.891Z" fill="#212121"/>
<path d="M203.073 111.495C204.56 111.495 205.717 110.386 205.717 109.04C205.717 107.615 204.56 106.506 203.156 106.506C201.669 106.506 200.512 107.615 200.512 108.961C200.512 110.386 201.669 111.495 203.073 111.495Z" fill="#212121"/>
<path d="M212.74 111.02C213.896 111.02 214.805 110.149 214.805 109.12C214.805 108.011 213.896 107.14 212.822 107.14C211.665 107.14 210.757 108.011 210.757 109.041C210.757 110.149 211.665 111.02 212.74 111.02Z" fill="#212121"/>
<path d="M222.406 110.545C223.232 110.545 223.893 109.912 223.893 109.199C223.893 108.407 223.232 107.773 222.489 107.773C221.662 107.773 221.001 108.407 221.001 109.12C221.001 109.912 221.662 110.545 222.406 110.545Z" fill="#212121"/>
<path d="M232.072 109.515C232.072 109.515 232.402 109.357 232.402 109.199C232.402 109.04 232.237 108.882 232.072 108.882C231.907 108.882 231.741 109.04 231.741 109.199C231.741 109.357 231.907 109.515 232.072 109.515Z" fill="#212121"/>
<path d="M0.247852 116.405C0.247852 116.405 0.495705 116.325 0.495705 116.167C0.495705 116.009 0.413086 115.93 0.247852 115.93C0.0826173 115.93 0 116.009 0 116.167C0 116.325 0.0826173 116.405 0.247852 116.405Z" fill="#212121"/>
<path d="M9.91444 117.593C10.658 117.593 11.3189 117.038 11.3189 116.326C11.3189 115.613 10.7406 114.979 9.99703 114.979C9.25348 114.979 8.59253 115.534 8.59253 116.246C8.59253 116.959 9.17085 117.593 9.91444 117.593Z" fill="#212121"/>
<path d="M19.4979 118.226C20.5719 118.226 21.3981 117.434 21.4807 116.404C21.4807 115.375 20.6545 114.583 19.5805 114.504C18.5065 114.504 17.6803 115.296 17.5977 116.325C17.5977 117.355 18.4238 118.147 19.4979 118.226Z" fill="#212121"/>
<path d="M29.164 118.86C30.5685 118.86 31.7252 117.83 31.7252 116.484C31.7252 115.138 30.6512 114.029 29.2467 114.029C27.8422 114.029 26.6855 115.059 26.6855 116.405C26.6855 117.751 27.7596 118.86 29.164 118.86Z" fill="#212121"/>
<path d="M38.83 119.493C40.565 119.493 41.9695 118.226 41.9695 116.563C41.9695 114.9 40.6476 113.554 38.9126 113.554C37.1777 113.554 35.7732 114.821 35.7732 116.484C35.7732 118.147 37.0951 119.493 38.83 119.493Z" fill="#212121"/>
<path d="M48.4964 120.127C50.4791 120.127 52.1314 118.622 52.2141 116.642C52.2141 114.742 50.6441 113.158 48.5787 113.079C46.5959 113.079 44.9437 114.583 44.8611 116.563C44.8611 118.464 46.4309 120.048 48.4964 120.127Z" fill="#212121"/>
<path d="M58.1627 120.681C60.4759 120.681 62.2936 118.939 62.2936 116.801C62.2936 114.584 60.4759 112.841 58.2454 112.841C55.9318 112.841 54.1145 114.584 54.1145 116.722C54.1145 118.939 55.9318 120.681 58.1627 120.681Z" fill="#212121"/>
<path d="M67.8286 121.156C70.3072 121.156 72.3726 119.256 72.3726 116.88C72.3726 114.504 70.3899 112.524 67.9113 112.524C65.4326 112.524 63.3672 114.425 63.3672 116.801C63.3672 119.176 65.3499 121.156 67.8286 121.156Z" fill="#212121"/>
<path d="M77.4122 121.552C80.0563 121.552 82.204 119.572 82.2868 117.038C82.2868 114.504 80.2213 112.446 77.5777 112.366C74.934 112.366 72.7859 114.346 72.7031 116.88C72.7031 119.414 74.7686 121.473 77.4122 121.552Z" fill="#212121"/>
<path d="M87.0786 121.869C89.805 121.869 92.1186 119.81 92.1186 117.118C92.1186 114.505 89.9705 112.287 87.1614 112.287C84.435 112.287 82.1218 114.346 82.1218 117.039C82.1218 119.652 84.27 121.869 87.0786 121.869Z" fill="#212121"/>
<path d="M96.7451 122.027C99.5542 122.027 101.867 119.889 101.95 117.197C101.95 114.505 99.7192 112.287 96.9106 112.208C94.1015 112.129 91.7883 114.346 91.7056 117.038C91.7056 119.731 93.936 121.948 96.7451 122.027Z" fill="#212121"/>
<path d="M106.411 122.186C109.302 122.186 111.616 120.048 111.616 117.276C111.616 114.505 109.385 112.287 106.494 112.287C103.602 112.287 101.289 114.425 101.289 117.197C101.289 119.968 103.519 122.186 106.411 122.186Z" fill="#212121"/>
<path d="M116.078 122.265C118.969 122.265 121.282 120.127 121.365 117.355C121.365 114.584 119.135 112.366 116.243 112.287C113.351 112.287 111.038 114.425 110.956 117.197C110.956 119.968 113.186 122.186 116.078 122.265Z" fill="#212121"/>
<path d="M125.744 122.423C128.635 122.423 130.949 120.285 131.031 117.513C131.031 114.742 128.8 112.524 125.909 112.445C123.017 112.445 120.704 114.583 120.621 117.355C120.621 120.126 122.852 122.343 125.744 122.423Z" fill="#212121"/>
<path d="M135.41 122.423C138.219 122.423 140.615 120.285 140.615 117.513C140.615 114.742 138.384 112.524 135.493 112.524C132.601 112.524 130.288 114.663 130.288 117.434C130.288 120.126 132.518 122.423 135.41 122.423Z" fill="#212121"/>
<path d="M145.076 122.423C147.802 122.423 150.116 120.364 150.116 117.672C150.116 115.059 147.968 112.841 145.159 112.841C142.432 112.841 140.119 114.9 140.119 117.593C140.119 120.206 142.267 122.423 145.076 122.423Z" fill="#212121"/>
<path d="M154.659 122.344C157.303 122.344 159.534 120.364 159.534 117.751C159.534 115.217 157.386 113.079 154.742 113.079C152.098 113.079 149.868 115.138 149.868 117.672C149.868 120.206 151.933 122.344 154.659 122.344Z" fill="#212121"/>
<path d="M164.326 122.185C166.805 122.185 168.87 120.285 168.953 117.83C168.953 115.454 166.97 113.475 164.409 113.396C161.93 113.396 159.864 115.296 159.782 117.751C159.782 120.126 161.765 122.106 164.326 122.185Z" fill="#212121"/>
<path d="M173.992 121.869C176.305 121.869 178.123 120.126 178.205 117.909C178.205 115.692 176.388 113.95 174.074 113.871C171.761 113.871 169.944 115.613 169.861 117.83C169.861 120.047 171.679 121.789 173.992 121.869Z" fill="#212121"/>
<path d="M183.658 121.552C185.724 121.552 187.376 119.968 187.376 118.067C187.376 116.088 185.724 114.504 183.741 114.504C181.675 114.504 180.023 116.088 180.023 117.988C180.023 119.968 181.675 121.552 183.658 121.552Z" fill="#212121"/>
<path d="M193.325 121.156C195.06 121.156 196.464 119.81 196.547 118.147C196.547 116.484 195.142 115.137 193.407 115.059C191.672 115.059 190.268 116.405 190.185 118.068C190.185 119.73 191.59 121.077 193.325 121.156Z" fill="#212121"/>
<path d="M202.991 120.681C204.395 120.681 205.552 119.572 205.552 118.226C205.552 116.88 204.395 115.771 202.991 115.771C201.586 115.771 200.429 116.88 200.429 118.226C200.429 119.572 201.586 120.681 202.991 120.681Z" fill="#212121"/>
<path d="M212.657 120.206C213.731 120.206 214.64 119.414 214.64 118.305C214.64 117.276 213.814 116.405 212.657 116.405C211.5 116.405 210.674 117.196 210.674 118.305C210.674 119.335 211.5 120.206 212.657 120.206Z" fill="#212121"/>
<path d="M222.323 119.731C223.067 119.731 223.728 119.176 223.728 118.385C223.728 117.672 223.15 117.039 222.323 117.039C221.58 117.039 220.919 117.593 220.919 118.385C220.919 119.176 221.497 119.731 222.323 119.731Z" fill="#212121"/>
<path d="M231.989 118.78C231.989 118.78 232.237 118.701 232.237 118.542C232.237 118.384 232.155 118.305 231.989 118.305C231.824 118.305 231.741 118.384 231.741 118.542C231.741 118.701 231.824 118.78 231.989 118.78Z" fill="#212121"/>
<path d="M0.165137 125.432V125.353L0.0825195 125.432H0.165137Z" fill="#212121"/>
<path d="M9.74917 126.699C10.4101 126.699 10.9884 126.223 10.9884 125.59C10.9884 124.957 10.4928 124.402 9.8318 124.402C9.17085 124.402 8.59253 124.878 8.59253 125.511C8.59253 126.145 9.08826 126.699 9.74917 126.699Z" fill="#212121"/>
<path d="M19.4151 127.333C20.4065 127.333 21.2327 126.62 21.2327 125.67C21.2327 124.719 20.4892 124.007 19.4978 123.928C18.5064 123.928 17.7628 124.64 17.6802 125.591C17.6802 126.541 18.4237 127.254 19.4151 127.333Z" fill="#212121"/>
<path d="M29.0814 127.966C30.4032 127.966 31.4773 127.016 31.4773 125.749C31.4773 124.482 30.4859 123.452 29.164 123.452C27.8421 123.452 26.7681 124.402 26.7681 125.67C26.7681 126.937 27.7595 127.966 29.0814 127.966Z" fill="#212121"/>
<path d="M38.7473 128.599C40.3997 128.599 41.6389 127.412 41.7215 125.828C41.7215 124.244 40.4823 123.056 38.8299 122.978C37.1776 122.978 35.9383 124.165 35.8557 125.749C35.8557 127.253 37.095 128.521 38.7473 128.599Z" fill="#212121"/>
<path d="M48.4141 129.233C50.3141 129.233 51.8841 127.808 51.8841 125.986C51.8841 124.165 50.3968 122.66 48.4963 122.66C46.5963 122.66 45.0266 124.086 45.0266 125.907C45.0266 127.728 46.5136 129.233 48.4141 129.233Z" fill="#212121"/>
<path d="M57.9972 129.787C60.1454 129.787 61.9631 128.124 61.9631 126.065C61.9631 124.006 60.2281 122.265 58.08 122.265C55.9318 122.265 54.1145 123.928 54.1145 125.986C54.1145 128.045 55.8495 129.787 57.9972 129.787Z" fill="#212121"/>
<path d="M67.6635 130.262C70.0595 130.262 72.0422 128.441 72.0422 126.145C72.0422 123.848 70.1417 121.948 67.7458 121.948C65.3499 121.948 63.3672 123.769 63.3672 126.065C63.3672 128.362 65.2676 130.262 67.6635 130.262Z" fill="#212121"/>
<path d="M77.33 130.659C79.8909 130.659 81.9563 128.679 82.0391 126.303C82.0391 123.849 79.9736 121.869 77.495 121.79C74.9341 121.79 72.8686 123.769 72.7859 126.145C72.7859 128.6 74.8513 130.579 77.33 130.659Z" fill="#212121"/>
<path d="M86.9964 130.975C89.7228 130.975 91.8705 128.916 91.9532 126.382C91.9532 123.769 89.805 121.71 87.1614 121.631C84.435 121.631 82.2869 123.69 82.2046 126.224C82.2046 128.837 84.3523 130.896 86.9964 130.975Z" fill="#212121"/>
<path d="M96.6624 131.213C99.3887 131.213 101.702 129.154 101.702 126.462C101.702 123.848 99.5542 121.631 96.7451 121.631C93.936 121.631 91.7056 123.69 91.7056 126.382C91.7056 128.996 93.8537 131.213 96.6624 131.213Z" fill="#212121"/>
<path d="M106.328 131.371C109.137 131.371 111.45 129.233 111.45 126.541C111.45 123.848 109.22 121.631 106.411 121.631C103.602 121.631 101.289 123.769 101.289 126.462C101.289 129.154 103.519 131.371 106.328 131.371Z" fill="#212121"/>
<path d="M115.995 131.451C118.804 131.451 121.117 129.312 121.2 126.62C121.2 123.928 118.969 121.71 116.16 121.631C113.351 121.631 111.038 123.769 110.956 126.462C110.956 129.154 113.186 131.371 115.995 131.451Z" fill="#212121"/>
<path d="M125.661 131.529C128.47 131.529 130.783 129.392 130.783 126.699C130.783 124.007 128.553 121.79 125.744 121.79C122.935 121.79 120.621 123.927 120.621 126.62C120.621 129.312 122.852 131.529 125.661 131.529Z" fill="#212121"/>
<path d="M135.244 131.609C137.971 131.609 140.284 129.55 140.284 126.858C140.284 124.165 138.136 122.027 135.327 122.027C132.601 122.027 130.288 124.086 130.288 126.778C130.288 129.391 132.436 131.609 135.244 131.609Z" fill="#212121"/>
<path d="M144.911 131.53C147.637 131.53 149.785 129.471 149.868 126.937C149.868 124.324 147.72 122.265 145.076 122.186C142.35 122.186 140.201 124.245 140.119 126.778C140.119 129.392 142.267 131.451 144.911 131.53Z" fill="#212121"/>
<path d="M154.577 131.45C157.138 131.45 159.286 129.471 159.286 127.016C159.286 124.561 157.22 122.502 154.66 122.502C152.098 122.502 149.95 124.482 149.95 126.937C149.95 129.391 152.016 131.45 154.577 131.45Z" fill="#212121"/>
<path d="M164.243 131.212C166.639 131.212 168.622 129.391 168.622 127.095C168.622 124.798 166.722 122.898 164.326 122.898C161.93 122.898 159.947 124.719 159.947 127.015C159.947 129.312 161.847 131.212 164.243 131.212Z" fill="#212121"/>
<path d="M173.91 130.975C176.058 130.975 177.875 129.312 177.875 127.253C177.875 125.194 176.14 123.452 173.992 123.452C171.844 123.452 170.027 125.115 170.027 127.174C170.027 129.233 171.762 130.975 173.91 130.975Z" fill="#212121"/>
<path d="M183.575 130.658C185.476 130.658 187.128 129.154 187.128 127.333C187.128 125.511 185.558 123.928 183.658 123.928C181.758 123.928 180.105 125.432 180.105 127.254C180.105 129.075 181.675 130.658 183.575 130.658Z" fill="#212121"/>
<path d="M193.242 130.184C194.894 130.184 196.216 128.917 196.216 127.333C196.216 125.749 194.894 124.482 193.242 124.482C191.59 124.482 190.268 125.749 190.268 127.333C190.268 128.917 191.59 130.184 193.242 130.184Z" fill="#212121"/>
<path d="M202.908 129.788C204.23 129.788 205.304 128.758 205.304 127.491C205.304 126.224 204.23 125.195 202.908 125.195C201.586 125.195 200.512 126.224 200.512 127.491C200.512 128.758 201.586 129.788 202.908 129.788Z" fill="#212121"/>
<path d="M212.575 129.312C213.566 129.312 214.392 128.521 214.392 127.57C214.392 126.62 213.566 125.828 212.575 125.828C211.583 125.828 210.757 126.62 210.757 127.57C210.757 128.521 211.583 129.312 212.575 129.312Z" fill="#212121"/>
<path d="M222.241 128.837C222.902 128.837 223.48 128.283 223.48 127.649C223.48 127.016 222.902 126.461 222.241 126.461C221.58 126.461 221.001 127.016 221.001 127.649C221.001 128.283 221.58 128.837 222.241 128.837Z" fill="#212121"/>
<path d="M231.907 127.808L231.989 127.729H231.907H231.824L231.907 127.808Z" fill="#212121"/>
<path d="M9.66615 135.489C9.66615 135.489 10.4097 135.172 10.4097 134.776C10.4097 134.38 10.0792 134.063 9.66615 134.063C9.25306 134.063 8.92261 134.38 8.92261 134.776C8.92261 135.172 9.25306 135.489 9.66615 135.489Z" fill="#212121"/>
<path d="M19.3324 136.36C20.1586 136.36 20.9022 135.726 20.9022 134.855C20.9022 134.063 20.2412 133.351 19.3324 133.351C18.5062 133.351 17.7627 133.984 17.7627 134.855C17.7627 135.647 18.4237 136.36 19.3324 136.36Z" fill="#212121"/>
<path d="M28.9986 136.993C30.1552 136.993 31.064 136.122 31.1466 135.014C31.2292 133.905 30.2378 133.034 29.0812 132.955C27.9245 132.955 27.0157 133.826 26.9331 134.934C26.9331 136.043 27.8419 136.914 28.9986 136.993Z" fill="#212121"/>
<path d="M38.6651 137.547C40.1523 137.547 41.3089 136.439 41.3089 135.092C41.3089 133.667 40.1523 132.559 38.7478 132.559C37.2606 132.559 36.104 133.667 36.104 135.014C36.104 136.439 37.2606 137.547 38.6651 137.547Z" fill="#212121"/>
<path d="M48.2486 138.181C49.9836 138.181 51.3881 136.835 51.3881 135.172C51.3881 133.509 49.9836 132.163 48.2486 132.163C46.5136 132.163 45.1091 133.509 45.1091 135.172C45.1091 136.835 46.5136 138.181 48.2486 138.181Z" fill="#212121"/>
<path d="M57.9145 138.735C59.8977 138.735 61.55 137.231 61.6327 135.251C61.6327 133.351 60.0627 131.767 57.9973 131.688C56.0145 131.688 54.3623 133.192 54.2795 135.172C54.2795 137.072 55.8491 138.656 57.9145 138.735Z" fill="#212121"/>
<path d="M67.5809 139.211C69.8118 139.211 71.6296 137.548 71.6296 135.41C71.6296 133.272 69.8946 131.529 67.6637 131.529C65.4332 131.529 63.6155 133.192 63.6155 135.331C63.6155 137.468 65.3505 139.211 67.5809 139.211Z" fill="#212121"/>
<path d="M77.2473 139.607C79.6432 139.607 81.6259 137.785 81.6259 135.489C81.6259 133.192 79.7255 131.292 77.3296 131.292C74.9337 131.292 72.9509 133.113 72.9509 135.41C72.9509 137.706 74.8514 139.607 77.2473 139.607Z" fill="#212121"/>
<path d="M86.9137 139.923C89.4746 139.923 91.5401 138.023 91.5401 135.568C91.5401 133.113 89.5574 131.134 86.996 131.134C84.4351 131.134 82.3696 133.034 82.3696 135.489C82.3696 137.944 84.3524 139.923 86.9137 139.923Z" fill="#212121"/>
<path d="M96.5795 140.24C99.2235 140.24 101.371 138.261 101.371 135.727C101.371 133.192 99.3058 131.134 96.6622 131.134C94.0185 131.134 91.8704 133.113 91.8704 135.647C91.8704 138.181 93.9358 140.24 96.5795 140.24Z" fill="#212121"/>
<path d="M106.246 140.398C108.89 140.398 111.12 138.34 111.12 135.805C111.12 133.272 108.972 131.134 106.329 131.134C103.685 131.134 101.454 133.192 101.454 135.727C101.454 138.261 103.602 140.398 106.246 140.398Z" fill="#212121"/>
<path d="M115.83 140.478C118.556 140.478 120.704 138.419 120.787 135.885C120.787 133.272 118.639 131.213 115.995 131.134C113.269 131.134 111.121 133.192 111.038 135.727C111.038 138.34 113.186 140.398 115.83 140.478Z" fill="#212121"/>
<path d="M125.496 140.557C128.14 140.557 130.37 138.498 130.37 135.964C130.37 133.43 128.222 131.292 125.579 131.292C122.935 131.292 120.704 133.351 120.704 135.885C120.704 138.419 122.852 140.557 125.496 140.557Z" fill="#212121"/>
<path d="M135.162 140.636C137.806 140.636 139.954 138.656 139.954 136.122C139.954 133.588 137.888 131.529 135.244 131.529C132.601 131.529 130.453 133.509 130.453 136.043C130.453 138.577 132.518 140.636 135.162 140.636Z" fill="#212121"/>
<path d="M144.828 140.557C147.389 140.557 149.455 138.656 149.455 136.201C149.455 133.747 147.472 131.767 144.911 131.767C142.35 131.767 140.284 133.667 140.284 136.122C140.284 138.577 142.267 140.557 144.828 140.557Z" fill="#212121"/>
<path d="M154.495 140.398C156.891 140.398 158.873 138.577 158.873 136.281C158.873 133.984 156.973 132.084 154.577 132.084C152.181 132.084 150.199 133.905 150.199 136.202C150.199 138.498 152.099 140.398 154.495 140.398Z" fill="#212121"/>
<path d="M164.16 140.24C166.391 140.24 168.209 138.498 168.291 136.36C168.291 134.222 166.474 132.48 164.243 132.4C162.013 132.4 160.195 134.143 160.112 136.28C160.112 138.419 161.93 140.161 164.16 140.24Z" fill="#212121"/>
<path d="M173.827 139.923C175.892 139.923 177.545 138.419 177.545 136.439C177.545 134.459 175.975 132.875 173.91 132.875C171.844 132.875 170.192 134.38 170.192 136.36C170.192 138.34 171.761 139.923 173.827 139.923Z" fill="#212121"/>
<path d="M183.493 139.606C185.228 139.606 186.715 138.26 186.715 136.597C186.715 134.934 185.311 133.509 183.576 133.509C181.841 133.509 180.354 134.855 180.354 136.518C180.354 138.181 181.758 139.606 183.493 139.606Z" fill="#212121"/>
<path d="M193.159 139.21C194.646 139.21 195.885 138.102 195.885 136.677C195.885 135.251 194.729 134.063 193.242 134.063C191.754 134.063 190.515 135.172 190.515 136.597C190.515 138.023 191.672 139.21 193.159 139.21Z" fill="#212121"/>
<path d="M202.825 138.735C203.982 138.735 204.974 137.864 204.974 136.676C204.974 135.568 204.065 134.618 202.825 134.618C201.586 134.618 200.677 135.489 200.677 136.676C200.677 137.785 201.586 138.735 202.825 138.735Z" fill="#212121"/>
<path d="M212.492 138.339C213.401 138.339 214.144 137.706 214.144 136.835C214.144 135.964 213.401 135.251 212.574 135.251C211.666 135.251 210.922 135.884 210.922 136.755C210.922 137.627 211.666 138.339 212.492 138.339Z" fill="#212121"/>
<path d="M222.158 137.627C222.571 137.627 222.901 137.31 222.901 136.914C222.901 136.518 222.571 136.201 222.158 136.201C221.745 136.201 221.414 136.518 221.414 136.914C221.414 137.31 221.745 137.627 222.158 137.627Z" fill="#212121"/>
<path d="M9.58368 144.12C9.58368 144.12 9.74891 144.12 9.74891 143.961C9.74891 143.961 9.74891 143.803 9.58368 143.803C9.58368 143.803 9.41846 143.803 9.41846 143.961C9.41846 143.961 9.41846 144.12 9.58368 144.12Z" fill="#212121"/>
<path d="M19.2497 145.229C19.9106 145.229 20.4063 144.753 20.4063 144.12C20.4063 143.487 19.9106 143.011 19.2497 143.011C18.5887 143.011 18.093 143.487 18.093 144.12C18.093 144.753 18.5887 145.229 19.2497 145.229Z" fill="#212121"/>
<path d="M28.9161 145.862C29.9075 145.862 30.6511 145.15 30.6511 144.199C30.6511 143.249 29.9075 142.537 28.9161 142.537C27.9247 142.537 27.1812 143.249 27.1812 144.199C27.1812 145.15 27.9247 145.862 28.9161 145.862Z" fill="#212121"/>
<path d="M38.4998 146.496C39.739 146.496 40.7304 145.545 40.8131 144.358C40.8131 143.17 39.8217 142.22 38.5824 142.141C37.3431 142.141 36.3517 143.091 36.2691 144.278C36.1865 145.467 37.2605 146.417 38.4998 146.496Z" fill="#212121"/>
<path d="M48.1659 147.05C49.6527 147.05 50.8923 145.941 50.8923 144.437C50.8923 143.011 49.7355 141.824 48.1659 141.824C46.6786 141.824 45.4395 142.932 45.4395 144.437C45.4395 145.862 46.5959 147.05 48.1659 147.05Z" fill="#212121"/>
<path d="M57.8322 147.525C59.5672 147.525 61.0544 146.179 61.0544 144.516C61.0544 142.853 59.6499 141.428 57.9149 141.428C56.1799 141.428 54.6926 142.774 54.6926 144.437C54.6926 146.1 56.0972 147.525 57.8322 147.525Z" fill="#212121"/>
<path d="M67.4981 148.08C69.4808 148.08 71.1335 146.575 71.1335 144.674C71.1335 142.774 69.5635 141.19 67.5808 141.19C65.5981 141.19 63.9458 142.695 63.9458 144.595C63.9458 146.496 65.5153 148.08 67.4981 148.08Z" fill="#212121"/>
<path d="M77.1645 148.475C79.3126 148.475 81.1304 146.812 81.1304 144.753C81.1304 142.694 79.3954 140.953 77.2472 140.953C75.099 140.953 73.2817 142.616 73.2817 144.674C73.2817 146.733 75.0167 148.475 77.1645 148.475Z" fill="#212121"/>
<path d="M86.8304 148.792C89.144 148.792 91.044 147.05 91.044 144.833C91.044 142.616 89.2263 140.794 86.9131 140.794C84.5999 140.794 82.6995 142.537 82.6995 144.754C82.6995 146.971 84.5172 148.792 86.8304 148.792Z" fill="#212121"/>
<path d="M96.4968 149.03C98.8927 149.03 100.875 147.209 100.875 144.912C100.875 142.616 98.9755 140.715 96.5796 140.715C94.1837 140.715 92.2009 142.536 92.2009 144.833C92.2009 147.129 94.1009 149.03 96.4968 149.03Z" fill="#212121"/>
<path d="M106.081 149.267C108.559 149.267 110.542 147.367 110.542 145.071C110.542 142.695 108.559 140.794 106.163 140.794C103.685 140.794 101.702 142.695 101.702 144.991C101.702 147.367 103.685 149.267 106.081 149.267Z" fill="#212121"/>
<path d="M115.747 149.426C118.225 149.426 120.291 147.525 120.291 145.15C120.291 142.774 118.308 140.794 115.829 140.794C113.351 140.794 111.285 142.695 111.285 145.071C111.285 147.446 113.268 149.426 115.747 149.426Z" fill="#212121"/>
<path d="M125.413 149.505C127.891 149.505 129.875 147.604 129.957 145.229C129.957 142.853 127.974 140.953 125.496 140.873C123.017 140.794 121.035 142.774 120.952 145.15C120.952 147.525 122.935 149.426 125.413 149.505Z" fill="#212121"/>
<path d="M135.079 149.505C137.475 149.505 139.458 147.684 139.458 145.387C139.458 143.091 137.558 141.19 135.162 141.19C132.766 141.19 130.783 143.012 130.783 145.308C130.783 147.604 132.683 149.505 135.079 149.505Z" fill="#212121"/>
<path d="M144.745 149.426C147.059 149.426 148.959 147.684 148.959 145.466C148.959 143.249 147.141 141.428 144.828 141.428C142.515 141.428 140.615 143.17 140.615 145.387C140.615 147.604 142.432 149.426 144.745 149.426Z" fill="#212121"/>
<path d="M154.412 149.267C156.559 149.267 158.377 147.604 158.377 145.546C158.377 143.487 156.642 141.745 154.494 141.745C152.346 141.745 150.529 143.408 150.529 145.467C150.529 147.526 152.264 149.267 154.412 149.267Z" fill="#212121"/>
<path d="M164.078 149.03C166.061 149.03 167.713 147.525 167.713 145.625C167.713 143.724 166.144 142.141 164.161 142.141C162.178 142.141 160.525 143.645 160.525 145.545C160.525 147.446 162.095 149.03 164.078 149.03Z" fill="#212121"/>
<path d="M173.744 148.792C175.479 148.792 176.966 147.446 176.966 145.783C176.966 144.12 175.562 142.695 173.827 142.695C172.092 142.695 170.604 144.041 170.604 145.704C170.604 147.367 172.009 148.792 173.744 148.792Z" fill="#212121"/>
<path d="M183.41 148.396C184.898 148.396 186.22 147.208 186.22 145.783C186.22 144.358 184.98 143.091 183.493 143.091C182.006 143.091 180.684 144.278 180.684 145.704C180.684 147.129 181.923 148.396 183.41 148.396Z" fill="#212121"/>
<path d="M193.077 148.08C194.316 148.08 195.39 147.129 195.39 145.941C195.39 144.754 194.399 143.724 193.16 143.724C191.92 143.724 190.846 144.674 190.846 145.862C190.846 147.05 191.837 148.08 193.077 148.08Z" fill="#212121"/>
<path d="M202.743 147.684C203.734 147.684 204.478 146.971 204.56 146.021C204.56 145.07 203.817 144.358 202.825 144.279C201.834 144.279 201.091 144.991 201.008 145.942C201.008 146.892 201.752 147.604 202.743 147.684Z" fill="#212121"/>
<path d="M212.409 147.208C213.07 147.208 213.648 146.654 213.648 146.021C213.648 145.387 213.07 144.833 212.409 144.833C211.748 144.833 211.169 145.387 211.169 146.021C211.169 146.654 211.748 147.208 212.409 147.208Z" fill="#212121"/>
<path d="M222.075 146.337C222.075 146.337 222.24 146.337 222.24 146.179C222.24 146.021 222.24 146.021 222.075 146.021C221.993 146.021 221.91 146.021 221.91 146.179C221.91 146.258 221.91 146.337 222.075 146.337Z" fill="#212121"/>
<path d="M19.1669 153.701C19.1669 153.701 19.4974 153.543 19.4974 153.384C19.4974 153.226 19.3322 153.068 19.1669 153.068C19.0017 153.068 18.8364 153.226 18.8364 153.384C18.8364 153.543 19.0017 153.701 19.1669 153.701Z" fill="#212121"/>
<path d="M28.7508 154.732C29.4944 154.732 30.0727 154.177 30.0727 153.464C30.0727 152.752 29.4944 152.197 28.7508 152.197C28.0073 152.197 27.429 152.752 27.429 153.464C27.429 154.177 28.0073 154.732 28.7508 154.732Z" fill="#212121"/>
<path d="M38.4168 155.286C39.4082 155.286 40.1518 154.573 40.2344 153.623C40.2344 152.672 39.4909 151.96 38.4995 151.88C37.5081 151.88 36.7645 152.593 36.6819 153.543C36.6819 154.494 37.4254 155.206 38.4168 155.286Z" fill="#212121"/>
<path d="M48.0832 155.761C49.3228 155.761 50.3141 154.81 50.3141 153.623C50.3141 152.435 49.3228 151.485 48.0832 151.485C46.8441 151.485 45.8528 152.435 45.8528 153.623C45.8528 154.81 46.8441 155.761 48.0832 155.761Z" fill="#212121"/>
<path d="M57.7496 156.315C59.2364 156.315 60.3932 155.206 60.3932 153.781C60.3932 152.356 59.2364 151.247 57.7496 151.247C56.2623 151.247 55.1055 152.356 55.1055 153.781C55.1055 155.206 56.2623 156.315 57.7496 156.315Z" fill="#212121"/>
<path d="M67.416 156.79C69.0682 156.79 70.4728 155.523 70.4728 153.939C70.4728 152.356 69.151 151.009 67.4987 151.009C65.846 151.009 64.4414 152.276 64.4414 153.86C64.4414 155.444 65.7637 156.79 67.416 156.79Z" fill="#212121"/>
<path d="M77.0819 157.186C78.8996 157.186 80.4692 155.761 80.4692 154.019C80.4692 152.276 78.9819 150.772 77.1646 150.772C75.3469 150.772 73.7773 152.197 73.7773 153.939C73.7773 155.682 75.2642 157.186 77.0819 157.186Z" fill="#212121"/>
<path d="M86.6656 157.503C88.6483 157.503 90.301 155.998 90.301 154.097C90.301 152.197 88.731 150.613 86.7483 150.613C84.7656 150.613 83.1133 152.118 83.1133 154.018C83.1133 155.919 84.6828 157.503 86.6656 157.503Z" fill="#212121"/>
<path d="M96.3317 157.819C98.3972 157.819 100.132 156.236 100.215 154.177C100.215 152.197 98.5626 150.534 96.4144 150.455C94.349 150.455 92.614 152.039 92.5312 154.098C92.5312 156.077 94.1835 157.74 96.3317 157.819Z" fill="#212121"/>
<path d="M105.998 157.978C108.146 157.978 109.964 156.315 109.964 154.256C109.964 152.197 108.229 150.455 106.081 150.455C103.933 150.455 102.115 152.118 102.115 154.177C102.115 156.236 103.85 157.978 105.998 157.978Z" fill="#212121"/>
<path d="M115.664 158.136C117.812 158.136 119.63 156.473 119.63 154.414C119.63 152.356 117.895 150.613 115.747 150.613C113.599 150.613 111.781 152.276 111.781 154.335C111.781 156.394 113.516 158.136 115.664 158.136Z" fill="#212121"/>
<path d="M125.33 158.216C127.479 158.216 129.296 156.553 129.296 154.494C129.296 152.435 127.561 150.693 125.413 150.693C123.265 150.693 121.448 152.356 121.448 154.414C121.448 156.473 123.182 158.216 125.33 158.216Z" fill="#212121"/>
<path d="M134.997 158.215C137.062 158.215 138.797 156.632 138.879 154.573C138.879 152.593 137.227 150.93 135.079 150.851C133.014 150.851 131.279 152.435 131.196 154.493C131.196 156.473 132.849 158.136 134.997 158.215Z" fill="#212121"/>
<path d="M144.663 158.136C146.646 158.136 148.298 156.632 148.381 154.652C148.381 152.751 146.811 151.168 144.746 151.088C142.763 151.088 141.111 152.593 141.028 154.573C141.028 156.473 142.597 158.057 144.663 158.136Z" fill="#212121"/>
<path d="M154.329 157.978C156.229 157.978 157.716 156.552 157.716 154.81C157.716 152.989 156.229 151.563 154.412 151.563C152.512 151.563 151.024 152.989 151.024 154.731C151.024 156.552 152.512 157.978 154.329 157.978Z" fill="#212121"/>
<path d="M163.996 157.74C165.648 157.74 167.052 156.473 167.052 154.81C167.052 153.147 165.73 151.88 163.996 151.88C162.343 151.88 160.938 153.147 160.938 154.81C160.938 156.394 162.261 157.74 163.996 157.74Z" fill="#212121"/>
<path d="M173.662 157.502C175.149 157.502 176.388 156.394 176.388 154.969C176.388 153.543 175.231 152.355 173.744 152.355C172.257 152.355 171.018 153.464 171.018 154.889C171.018 156.315 172.175 157.502 173.662 157.502Z" fill="#212121"/>
<path d="M183.246 157.186C184.485 157.186 185.559 156.236 185.559 155.048C185.559 153.86 184.567 152.831 183.328 152.831C182.089 152.831 181.015 153.781 181.015 154.969C181.015 156.156 182.006 157.186 183.246 157.186Z" fill="#212121"/>
<path d="M192.911 156.869C193.903 156.869 194.729 156.077 194.729 155.127C194.729 154.177 193.903 153.385 192.911 153.385C191.92 153.385 191.094 154.177 191.094 155.127C191.094 156.077 191.92 156.869 192.911 156.869Z" fill="#212121"/>
<path d="M202.578 156.473C203.321 156.473 203.899 155.919 203.899 155.206C203.899 154.494 203.321 153.939 202.578 153.939C201.834 153.939 201.256 154.494 201.256 155.206C201.256 155.919 201.834 156.473 202.578 156.473Z" fill="#212121"/>
<path d="M212.244 155.682C212.244 155.682 212.657 155.523 212.657 155.365C212.657 155.206 212.492 154.969 212.327 154.969C212.161 154.969 211.914 155.127 211.914 155.286C211.914 155.444 212.079 155.682 212.244 155.682Z" fill="#212121"/>
<path d="M28.6681 163.045C28.6681 163.045 28.9986 162.887 28.9986 162.729C28.9986 162.571 28.8333 162.412 28.6681 162.412C28.5029 162.412 28.3376 162.571 28.3376 162.729C28.3376 162.887 28.5029 163.045 28.6681 163.045Z" fill="#212121"/>
<path d="M38.3344 163.996C38.9953 163.996 39.5736 163.521 39.5736 162.888C39.5736 162.254 39.078 161.7 38.417 161.7C37.7561 161.7 37.1777 162.175 37.1777 162.808C37.1777 163.442 37.6735 163.996 38.3344 163.996Z" fill="#212121"/>
<path d="M48.0004 164.551C48.9091 164.551 49.6527 163.838 49.6527 162.967C49.6527 162.096 48.9091 161.383 48.0004 161.383C47.0918 161.383 46.3481 162.096 46.3481 162.967C46.3481 163.838 47.0918 164.551 48.0004 164.551Z" fill="#212121"/>
<path d="M57.6668 164.946C58.8236 164.946 59.7323 164.075 59.7323 163.046C59.7323 161.937 58.8236 161.066 57.7495 161.066C56.5927 161.066 55.6841 161.937 55.6841 162.966C55.6841 164.075 56.5927 164.946 57.6668 164.946Z" fill="#212121"/>
<path d="M67.3332 165.421C68.655 165.421 69.7291 164.392 69.7291 163.125C69.7291 161.858 68.655 160.829 67.3332 160.829C66.0113 160.829 64.9373 161.858 64.9373 163.125C64.9373 164.392 66.0113 165.421 67.3332 165.421Z" fill="#212121"/>
<path d="M76.9168 165.817C78.4036 165.817 79.6432 164.709 79.6432 163.284C79.6432 161.858 78.4863 160.67 76.9991 160.67C75.5123 160.67 74.2727 161.779 74.2727 163.204C74.2727 164.629 75.4295 165.817 76.9168 165.817Z" fill="#212121"/>
<path d="M86.5832 166.134C88.2355 166.134 89.4746 164.946 89.5573 163.362C89.5573 161.779 88.3182 160.591 86.6655 160.512C85.0132 160.512 83.6914 161.699 83.6914 163.283C83.6914 164.867 84.9305 166.055 86.5832 166.134Z" fill="#212121"/>
<path d="M96.2492 166.372C97.9842 166.372 99.3887 165.105 99.3887 163.442C99.3887 161.779 98.0669 160.433 96.3319 160.433C94.5969 160.433 93.1924 161.7 93.1924 163.363C93.1924 165.025 94.5147 166.372 96.2492 166.372Z" fill="#212121"/>
<path d="M105.915 166.609C107.65 166.609 109.138 165.263 109.138 163.6C109.138 161.937 107.733 160.512 105.998 160.512C104.263 160.512 102.776 161.858 102.776 163.521C102.776 165.184 104.18 166.609 105.915 166.609Z" fill="#212121"/>
<path d="M115.582 166.688C117.4 166.688 118.804 165.342 118.886 163.6C118.886 161.858 117.482 160.512 115.665 160.433C113.847 160.433 112.442 161.779 112.36 163.521C112.36 165.263 113.764 166.609 115.582 166.688Z" fill="#212121"/>
<path d="M125.248 166.768C126.983 166.768 128.47 165.421 128.47 163.758C128.47 162.095 127.065 160.67 125.33 160.67C123.595 160.67 122.109 162.016 122.109 163.679C122.109 165.342 123.513 166.768 125.248 166.768Z" fill="#212121"/>
<path d="M134.914 166.768C136.649 166.768 138.054 165.501 138.054 163.838C138.054 162.175 136.732 160.829 134.997 160.829C133.262 160.829 131.857 162.096 131.857 163.759C131.857 165.421 133.179 166.768 134.914 166.768Z" fill="#212121"/>
<path d="M144.58 166.688C146.233 166.688 147.555 165.421 147.555 163.917C147.555 162.333 146.233 161.066 144.663 161.066C143.011 161.066 141.689 162.333 141.689 163.838C141.689 165.421 143.011 166.688 144.58 166.688Z" fill="#212121"/>
<path d="M154.247 166.609C155.734 166.609 156.973 165.501 156.973 164.075C156.973 162.65 155.816 161.462 154.329 161.462C152.842 161.462 151.603 162.571 151.603 163.996C151.603 165.421 152.76 166.609 154.247 166.609Z" fill="#212121"/>
<path d="M163.83 166.372C165.152 166.372 166.226 165.342 166.226 164.075C166.226 162.808 165.152 161.779 163.83 161.779C162.508 161.779 161.434 162.808 161.434 164.075C161.434 165.342 162.508 166.372 163.83 166.372Z" fill="#212121"/>
<path d="M173.496 166.134C174.653 166.134 175.562 165.263 175.562 164.154C175.562 163.046 174.653 162.175 173.496 162.175C172.34 162.175 171.431 163.046 171.431 164.154C171.431 165.263 172.34 166.134 173.496 166.134Z" fill="#212121"/>
<path d="M183.162 165.897C184.071 165.897 184.897 165.184 184.897 164.313C184.897 163.442 184.154 162.65 183.245 162.65C182.336 162.65 181.51 163.363 181.51 164.234C181.51 165.105 182.254 165.897 183.162 165.897Z" fill="#212121"/>
<path d="M192.829 165.579C193.49 165.579 194.068 165.025 194.068 164.392C194.068 163.758 193.49 163.204 192.829 163.204C192.168 163.204 191.59 163.758 191.59 164.392C191.59 165.025 192.168 165.579 192.829 165.579Z" fill="#212121"/>
<path d="M202.495 164.867C202.495 164.867 202.908 164.709 202.908 164.55C202.908 164.313 202.743 164.154 202.578 164.154C202.412 164.154 202.165 164.313 202.165 164.471C202.165 164.709 202.33 164.867 202.495 164.867Z" fill="#212121"/>
<path d="M38.2517 172.231C38.2517 172.231 38.4169 172.231 38.4169 172.073C38.4169 171.994 38.4169 171.915 38.2517 171.915C38.1691 171.915 38.0864 171.915 38.0864 172.073C38.0864 172.152 38.0864 172.231 38.2517 172.231Z" fill="#212121"/>
<path d="M47.9182 172.944C48.4141 172.944 48.7446 172.627 48.7446 172.152C48.7446 171.677 48.4141 171.36 47.9182 171.36C47.4227 171.36 47.0923 171.677 47.0923 172.152C47.0923 172.627 47.4227 172.944 47.9182 172.944Z" fill="#212121"/>
<path d="M57.5845 173.578C58.3277 173.578 58.9886 173.024 58.9886 172.231C58.9886 171.519 58.4104 170.885 57.5845 170.885C56.8408 170.885 56.1799 171.44 56.1799 172.231C56.1799 172.944 56.7581 173.578 57.5845 173.578Z" fill="#212121"/>
<path d="M67.2504 174.053C68.159 174.053 68.9854 173.34 68.9854 172.39C68.9854 171.519 68.2417 170.727 67.2504 170.727C66.3413 170.727 65.5154 171.439 65.5154 172.39C65.5154 173.34 66.259 174.053 67.2504 174.053Z" fill="#212121"/>
<path d="M76.834 174.37C77.9081 174.37 78.8168 173.578 78.8168 172.548C78.8168 171.519 77.9909 170.648 76.9168 170.648C75.8427 170.648 74.9336 171.44 74.9336 172.469C74.9336 173.499 75.76 174.37 76.834 174.37Z" fill="#212121"/>
<path d="M86.5005 174.607C87.6573 174.607 88.6487 173.736 88.7309 172.548C88.7309 171.439 87.8223 170.489 86.5832 170.41C85.3437 170.41 84.435 171.281 84.3523 172.469C84.3523 173.577 85.2614 174.528 86.5005 174.607Z" fill="#212121"/>
<path d="M96.1667 174.924C97.4885 174.924 98.4799 173.974 98.4799 172.706C98.4799 171.439 97.4885 170.489 96.1667 170.489C94.8449 170.489 93.8535 171.439 93.8535 172.706C93.8535 173.974 94.8449 174.924 96.1667 174.924Z" fill="#212121"/>
<path d="M105.833 175.082C107.155 175.082 108.311 174.052 108.311 172.785C108.311 171.519 107.237 170.41 105.915 170.41C104.594 170.41 103.437 171.439 103.437 172.707C103.437 173.974 104.511 175.082 105.833 175.082Z" fill="#212121"/>
<path d="M115.499 175.241C116.904 175.241 117.978 174.211 117.978 172.865C117.978 171.519 116.904 170.489 115.499 170.489C114.095 170.489 113.021 171.519 113.021 172.865C113.021 174.211 114.095 175.241 115.499 175.241Z" fill="#212121"/>
<path d="M125.165 175.32C126.487 175.32 127.644 174.291 127.644 173.024C127.644 171.757 126.57 170.648 125.248 170.648C123.926 170.648 122.77 171.677 122.77 172.944C122.77 174.211 123.844 175.32 125.165 175.32Z" fill="#212121"/>
<path d="M134.831 175.319C136.153 175.319 137.227 174.369 137.227 173.102C137.227 171.835 136.236 170.806 134.914 170.806C133.592 170.806 132.518 171.756 132.518 173.023C132.518 174.29 133.509 175.319 134.831 175.319Z" fill="#212121"/>
<path d="M144.498 175.241C145.737 175.241 146.728 174.291 146.728 173.182C146.728 171.994 145.737 171.044 144.58 171.044C143.341 171.044 142.35 171.994 142.35 173.102C142.35 174.291 143.341 175.241 144.498 175.241Z" fill="#212121"/>
<path d="M154.081 175.161C155.155 175.161 156.064 174.37 156.064 173.261C156.064 172.231 155.238 171.36 154.081 171.36C153.007 171.36 152.098 172.152 152.098 173.261C152.098 174.29 152.925 175.161 154.081 175.161Z" fill="#212121"/>
<path d="M163.748 175.003C164.739 175.003 165.483 174.29 165.483 173.34C165.483 172.39 164.739 171.677 163.748 171.677C162.756 171.677 162.013 172.39 162.013 173.34C162.013 174.29 162.756 175.003 163.748 175.003Z" fill="#212121"/>
<path d="M173.414 174.765C174.157 174.765 174.818 174.132 174.818 173.419C174.818 172.707 174.157 172.073 173.414 172.073C172.67 172.073 172.009 172.707 172.009 173.419C172.009 174.132 172.67 174.765 173.414 174.765Z" fill="#212121"/>
<path d="M183.08 174.369C183.575 174.369 183.906 173.974 183.906 173.578C183.906 173.182 183.493 172.786 183.08 172.786C182.584 172.786 182.254 173.182 182.254 173.578C182.254 174.053 182.667 174.369 183.08 174.369Z" fill="#212121"/>
<path d="M192.746 173.815C192.746 173.815 192.911 173.815 192.911 173.657C192.911 173.578 192.911 173.499 192.746 173.499C192.664 173.499 192.581 173.499 192.581 173.657C192.581 173.736 192.581 173.815 192.746 173.815Z" fill="#212121"/>
<path d="M57.5014 181.734C57.5014 181.734 57.7496 181.655 57.7496 181.496C57.7496 181.338 57.6668 181.259 57.5014 181.259C57.3364 181.259 57.2537 181.338 57.2537 181.496C57.2537 181.655 57.3364 181.734 57.5014 181.734Z" fill="#212121"/>
<path d="M67.0854 182.288C67.0854 182.288 67.8291 181.971 67.8291 181.576C67.8291 181.18 67.4986 180.863 67.0854 180.863C66.6723 180.863 66.3418 181.18 66.3418 181.576C66.3418 181.971 66.6723 182.288 67.0854 182.288Z" fill="#212121"/>
<path d="M76.7513 182.843C77.4122 182.843 77.9081 182.367 77.9081 181.734C77.9081 181.1 77.4122 180.625 76.7513 180.625C76.0904 180.625 75.595 181.1 75.595 181.734C75.595 182.367 76.0904 182.843 76.7513 182.843Z" fill="#212121"/>
<path d="M86.4177 183.239C87.2441 183.239 87.905 182.605 87.905 181.892C87.905 181.1 87.2441 180.467 86.5005 180.467C85.6741 180.467 85.0132 181.1 85.0132 181.813C85.0132 182.605 85.6741 183.239 86.4177 183.239Z" fill="#212121"/>
<path d="M96.0842 183.397C96.9928 183.397 97.6537 182.763 97.6537 181.892C97.6537 181.021 96.9928 180.388 96.0842 180.388C95.1756 180.388 94.5146 181.021 94.5146 181.892C94.5146 182.763 95.1756 183.397 96.0842 183.397Z" fill="#212121"/>
<path d="M105.75 183.634C106.659 183.634 107.403 182.922 107.403 182.05C107.403 181.18 106.659 180.467 105.75 180.467C104.841 180.467 104.098 181.18 104.098 182.05C104.098 182.922 104.841 183.634 105.75 183.634Z" fill="#212121"/>
<path d="M115.416 183.713C116.326 183.713 117.151 183.001 117.151 182.13C117.151 181.259 116.408 180.467 115.499 180.467C114.591 180.467 113.764 181.18 113.764 182.05C113.764 182.922 114.508 183.713 115.416 183.713Z" fill="#212121"/>
<path d="M125.083 183.793C125.991 183.793 126.735 183.08 126.735 182.209C126.735 181.338 125.991 180.625 125.083 180.625C124.174 180.625 123.43 181.338 123.43 182.209C123.43 183.08 124.174 183.793 125.083 183.793Z" fill="#212121"/>
<path d="M134.666 183.793C135.575 183.793 136.236 183.159 136.236 182.288C136.236 181.417 135.575 180.784 134.666 180.784C133.758 180.784 133.096 181.417 133.096 182.288C133.096 183.159 133.758 183.793 134.666 183.793Z" fill="#212121"/>
<path d="M144.332 183.793C145.159 183.793 145.82 183.159 145.82 182.447C145.82 181.654 145.159 181.021 144.415 181.021C143.589 181.021 142.928 181.654 142.928 182.367C142.928 183.159 143.589 183.793 144.332 183.793Z" fill="#212121"/>
<path d="M153.999 183.634C154.66 183.634 155.155 183.159 155.155 182.526C155.155 181.892 154.66 181.417 153.999 181.417C153.338 181.417 152.842 181.892 152.842 182.526C152.842 183.159 153.338 183.634 153.999 183.634Z" fill="#212121"/>
<path d="M163.665 183.318C163.665 183.318 164.408 183.001 164.408 182.605C164.408 182.209 164.078 181.893 163.665 181.893C163.252 181.893 162.921 182.209 162.921 182.605C162.921 183.001 163.252 183.318 163.665 183.318Z" fill="#212121"/>
<path d="M173.331 182.922C173.331 182.922 173.579 182.843 173.579 182.684C173.579 182.526 173.496 182.447 173.331 182.447C173.166 182.447 173.083 182.526 173.083 182.684C173.083 182.843 173.166 182.922 173.331 182.922Z" fill="#212121"/>
<path d="M86.3349 191.236C86.3349 191.236 86.4999 191.236 86.4999 191.077C86.4999 190.998 86.4999 190.919 86.3349 190.919C86.1694 190.919 86.1694 190.919 86.1694 191.077C86.1694 191.157 86.1694 191.236 86.3349 191.236Z" fill="#212121"/>
<path d="M96.0014 191.473C96.0014 191.473 96.3318 191.315 96.3318 191.157C96.3318 190.999 96.1664 190.84 96.0014 190.84C95.8359 190.84 95.6709 190.999 95.6709 191.157C95.6709 191.315 95.8359 191.473 96.0014 191.473Z" fill="#212121"/>
<path d="M105.667 191.712C105.667 191.712 106.081 191.553 106.081 191.316C106.081 191.078 105.916 190.919 105.667 190.919C105.42 190.919 105.255 191.078 105.255 191.316C105.255 191.553 105.42 191.712 105.667 191.712Z" fill="#212121"/>
<path d="M115.334 191.791C115.334 191.791 115.83 191.633 115.83 191.395C115.83 191.157 115.664 190.919 115.416 190.919C115.168 190.919 114.92 191.078 114.92 191.316C114.92 191.553 115.086 191.791 115.334 191.791Z" fill="#212121"/>
<path d="M125 191.87C125 191.87 125.413 191.712 125.413 191.474C125.413 191.236 125.248 191.078 125 191.078C124.752 191.078 124.587 191.236 124.587 191.474C124.587 191.712 124.752 191.87 125 191.87Z" fill="#212121"/>
<path d="M134.583 191.869C134.583 191.869 134.914 191.711 134.914 191.553C134.914 191.394 134.749 191.236 134.583 191.236C134.418 191.236 134.253 191.394 134.253 191.553C134.253 191.711 134.418 191.869 134.583 191.869Z" fill="#212121"/>
<path d="M144.25 191.79C144.25 191.79 144.415 191.79 144.415 191.632C144.415 191.553 144.415 191.474 144.25 191.474C144.167 191.474 144.084 191.474 144.084 191.632C144.084 191.711 144.084 191.79 144.25 191.79Z" fill="#212121"/>
<path d="M153.916 191.791H153.999L153.916 191.711V191.791Z" fill="#212121"/>
<path d="M231.741 45.2952L194.564 60.1032L204.395 54.4016L225.958 41.019L231.741 45.2952Z" fill="#212121"/>
<path d="M109.055 200.185L117.482 165.184L116.49 202.402L109.055 200.185Z" fill="#212121"/>
<path d="M28.5029 35.7925L54.5272 59.5484L48.1658 56.4604L19.8281 40.1478L28.5029 35.7925Z" fill="#212121"/>
<path d="M126.817 1.1084C126.817 43.8694 84.4345 55.4304 46.4309 22.8848C84.5173 55.3515 61.9627 84.413 3.63501 78.1572C61.9627 84.4923 69.7291 117.592 18.5061 140.952C69.8113 117.592 104.345 139.131 84.0218 181.971C104.263 139.21 149.372 139.21 169.613 181.971C149.372 139.21 183.906 117.592 235.129 140.952C183.823 117.592 191.672 84.4923 250 78.1572C191.672 84.4923 169.2 55.4304 207.204 22.8848C169.2 55.3515 126.817 43.8694 126.817 1.1084Z" fill="#212121"/>
<path d="M159.864 160.274C150.446 150.455 138.797 144.912 126.569 144.912C114.342 144.912 102.693 150.376 93.2749 160.274C93.6881 153.068 92.2835 146.654 88.979 141.348C83.0304 131.767 71.5467 126.461 56.6754 126.461C52.7926 126.461 48.744 126.857 44.5307 127.57C53.1231 119.572 57.0885 111.02 55.7667 102.626C54.2794 93.3612 46.7613 85.7592 34.2861 80.5329C51.6358 77.9197 63.4499 70.7137 67.3331 59.9444C69.729 53.2137 68.9026 45.9284 64.9372 38.3263C73.364 42.2065 81.9563 44.1861 90.0526 44.1861C107.32 44.1861 120.539 35.0005 126.569 20.0342C132.601 35.0005 145.819 44.1861 163.087 44.1861C171.183 44.1861 179.775 42.1273 188.202 38.3263C184.237 45.9284 183.41 53.2925 185.806 59.9444C189.689 70.793 201.421 77.9197 218.853 80.5329C206.378 85.8385 198.86 93.3612 197.373 102.626C196.051 111.02 200.016 119.572 208.609 127.57C204.395 126.857 200.347 126.461 196.464 126.461C181.593 126.461 170.192 131.767 164.16 141.348C160.856 146.654 159.451 153.068 159.864 160.274Z" fill="#FFFDF5"/>
<path d="M162.178 1.10861L143.093 51.1548L172.092 0L162.178 1.10861Z" fill="#212121"/>
<path d="M207.039 175.003L162.591 129.629L199.356 178.171L207.039 175.003Z" fill="#212121"/>
<path d="M1.40454 114.108L65.681 101.834L3.05689 106.506L1.40454 114.108Z" fill="#212121"/>
</g>
<path d="M88.5141 87.3781C88.5141 85.9142 87.9468 84.7431 86.7904 83.8648C85.7213 83.0493 84.3904 82.631 82.8195 82.631C81.2704 82.631 79.5468 83.0911 77.6486 83.9903C76.7759 84.4086 75.7723 85.015 74.6595 85.7888C73.6995 86.458 73.0014 87.0226 72.5432 87.5036C71.7577 88.2982 71.365 89.072 71.365 89.8039C71.365 90.0549 71.4086 90.2849 71.4741 90.494L69.9904 96.0985C69.205 99.068 68.8123 100.887 68.8123 101.536C68.8123 102.079 69.1614 102.351 69.8377 102.351C70.405 102.351 70.9286 102.226 71.4304 101.996C71.9759 101.724 72.3686 101.327 72.565 100.804C72.7177 100.448 72.805 99.9045 72.8704 99.1517L73.0013 97.3532C76.7541 96.8513 80.005 95.9103 82.7541 94.551C86.5941 92.6689 88.5141 90.2849 88.5141 87.3781ZM84.5214 88.7583C84.5214 89.7412 83.8232 90.8077 82.405 91.937C80.7904 93.2126 77.8668 93.9445 73.6123 94.1327C74.0486 92.2506 74.5504 90.4104 75.1395 88.6119C77.2777 87.0226 79.1541 86.2279 80.7468 86.2279C81.6414 86.2279 82.4704 86.437 83.2123 86.8344C84.085 87.3154 84.5214 87.9636 84.5214 88.7583ZM108.558 93.0244C108.558 91.5815 106.704 90.8704 102.973 90.8704C101.816 90.8704 100.485 90.9541 99.0236 91.1005C97.1909 91.3096 95.9036 91.5605 95.1836 91.8742C94.5945 92.1043 94.0491 92.4807 93.5254 92.9826C92.9363 93.589 92.6309 94.1327 92.6309 94.6346C92.6309 95.1574 92.9363 95.4084 93.5254 95.4084C93.7 95.4084 94.0273 95.3666 94.4854 95.2829C98.5654 94.4255 101.751 94.0073 103.998 94.0073C104.5 94.0073 104.762 94.1327 104.762 94.3837C104.762 94.6974 104.085 95.1993 102.755 95.9103C101.904 96.3494 101.075 96.7468 100.267 97.0814C97.8018 98.0642 95.7291 98.5661 94.0709 98.5661C93.1545 98.5661 92.4127 98.3779 91.8454 98.0224C91.1691 97.6251 90.8418 96.9977 90.8418 96.1821C90.8418 95.0529 91.4963 93.7563 92.7836 92.2925C95.4673 89.2602 98.9582 87.399 103.256 86.7089C103.235 87.4408 103.256 87.9218 103.3 88.1728C103.409 88.8001 103.693 89.1138 104.151 89.1138C104.522 89.1138 105.045 88.9256 105.7 88.5492C106.595 88.0682 107.031 87.399 107.031 86.5625C107.031 85.726 107.075 85.1405 107.14 84.8059C107.249 84.1994 107.315 83.8021 107.315 83.6348C107.315 83.0493 106.791 82.7565 105.744 82.7565C101.882 82.7565 98.2163 83.9485 94.7909 86.3534C91.3 88.8001 89.0527 91.7697 88.0273 95.3038C87.7873 96.1194 87.6563 96.935 87.6563 97.7297C87.6563 100.678 89.4236 102.289 92.5654 102.289C95.62 102.289 99.46 100.804 104.085 97.8551C107.075 95.9521 108.558 94.3419 108.558 93.0244ZM129.005 83.4466C129.005 82.9238 128.634 82.6519 127.914 82.6519C126.212 82.6519 125.143 83.3629 124.685 84.785C124.27 86.1443 123.856 87.629 123.441 89.2811C120.801 89.4275 118.096 89.8876 115.303 90.6613C115.761 89.0511 116.307 87.4408 116.918 85.8306C117.136 85.2241 117.245 84.785 117.245 84.4922C117.245 83.9276 116.874 83.6348 116.11 83.6348C115.565 83.6348 115.063 83.7394 114.561 83.9694C114.016 84.1994 113.623 84.534 113.383 84.9523C113.23 85.1823 113.078 85.6215 112.903 86.2279C112.445 87.88 111.921 90.2222 111.332 93.2126C110.678 96.5376 110.176 98.8798 109.827 100.239C109.696 100.825 109.63 101.222 109.63 101.41C109.63 102.038 109.98 102.351 110.7 102.351C111.158 102.351 111.616 102.247 112.096 102.017C112.641 101.787 113.012 101.494 113.187 101.159C113.34 100.887 113.427 100.448 113.449 99.8209C113.601 98.1688 113.885 96.3704 114.343 94.3837C116.852 93.5681 119.623 92.9407 122.634 92.5434C122.11 94.8019 121.805 96.1194 121.696 96.4749C121.456 97.3741 121.281 98.0433 121.129 98.4825C120.889 99.2772 120.78 99.9463 120.78 100.511C120.78 101.097 121.15 101.389 121.892 101.389C122.503 101.389 123.049 101.243 123.529 100.929C124.074 100.616 124.401 100.176 124.554 99.6536C124.663 98.8171 124.729 98.1897 124.772 97.7924C124.947 96.5167 125.383 94.6555 126.06 92.167C126.605 92.1461 127.063 92.0624 127.434 91.8951C127.936 91.6651 128.198 91.3305 128.198 90.8913C128.198 90.2849 127.761 89.7621 126.91 89.3648C127.652 87.0017 128.329 85.1405 128.961 83.7394C128.983 83.6348 129.005 83.5302 129.005 83.4466ZM135.648 97.6669C135.648 97.2696 135.451 96.935 135.08 96.7049C134.775 96.4958 134.404 96.3913 133.946 96.3913C133.248 96.3913 132.55 96.8095 131.851 97.6251C131.72 97.7715 131.24 98.4825 130.39 99.7163C129.539 100.992 128.95 101.828 128.622 102.247C128.142 102.853 127.902 103.334 127.902 103.669C127.902 104.338 128.6 104.798 129.364 104.798C129.888 104.798 130.63 104.254 131.59 103.167L133.379 100.929C134.819 99.1517 135.56 98.1479 135.626 97.9179C135.648 97.8551 135.648 97.7715 135.648 97.6669ZM167.775 87.3781C167.775 85.9142 167.208 84.7431 166.052 83.8648C164.983 83.0493 163.652 82.631 162.081 82.631C160.532 82.631 158.808 83.0911 156.91 83.9903C156.037 84.4086 155.034 85.015 153.921 85.7888C152.961 86.458 152.263 87.0226 151.805 87.5036C151.019 88.2982 150.626 89.072 150.626 89.8039C150.626 90.0549 150.67 90.2849 150.735 90.494L149.252 96.0985C148.466 99.068 148.074 100.887 148.074 101.536C148.074 102.079 148.423 102.351 149.099 102.351C149.666 102.351 150.19 102.226 150.692 101.996C151.237 101.724 151.63 101.327 151.826 100.804C151.979 100.448 152.066 99.9045 152.132 99.1517L152.263 97.3532C156.015 96.8513 159.266 95.9103 162.015 94.551C165.855 92.6689 167.775 90.2849 167.775 87.3781ZM163.783 88.7583C163.783 89.7412 163.085 90.8077 161.666 91.937C160.052 93.2126 157.128 93.9445 152.874 94.1327C153.31 92.2506 153.812 90.4104 154.401 88.6119C156.539 87.0226 158.415 86.2279 160.008 86.2279C160.903 86.2279 161.732 86.437 162.474 86.8344C163.346 87.3154 163.783 87.9636 163.783 88.7583ZM182.109 99.6117C182.109 99.2981 182 98.8798 181.803 98.3361L181.345 97.0814C180.254 93.9445 179.469 89.8457 178.967 84.8059C178.901 83.9485 178.836 83.4675 178.814 83.3211C178.618 82.7983 178.247 82.5474 177.658 82.5474C176.632 82.5474 175.803 83.0074 175.214 83.9067L170.61 90.8286C168.8 93.4845 167.098 95.6803 165.505 97.416L164.087 98.9007C163.498 99.549 163.192 100.135 163.192 100.616C163.192 101.138 163.323 101.598 163.585 101.996C163.912 102.477 164.349 102.707 164.85 102.707C165.396 102.707 166.116 102.079 167.01 100.825C171.309 100.114 174.952 99.4445 177.941 98.7962C178.05 99.6745 178.138 100.26 178.225 100.553C178.465 101.285 178.836 101.661 179.36 101.661C179.905 101.661 180.494 101.452 181.105 101.034C181.781 100.595 182.109 100.114 182.109 99.6117ZM177.352 95.2829C174.974 96.0148 172.443 96.6004 169.76 97.0395C173.054 92.2088 175.192 89.1347 176.13 87.8382C176.676 91.0377 177.09 93.5054 177.352 95.2829Z" fill="#212121"/>
</g>
<defs>
<clipPath id="clip0_212_54863">
<rect width="250" height="202.587" fill="white"/>
</clipPath>
</defs>
</svg>
